<svg xmlns="http://www.w3.org/2000/svg" xmlns:xlink="http://www.w3.org/1999/xlink" width="220.066" height="166.834" viewBox="0 0 220.066 166.834">
  <defs>
    <linearGradient id="linear-gradient" x1="0.5" y1="1" x2="0.5" gradientUnits="objectBoundingBox">
      <stop offset="0" stop-color="gray" stop-opacity="0.251"/>
      <stop offset="0.54" stop-color="gray" stop-opacity="0.122"/>
      <stop offset="1" stop-color="gray" stop-opacity="0.102"/>
    </linearGradient>
    <linearGradient id="linear-gradient-2" x1="9.926" x2="9.926" y2="0" xlink:href="#linear-gradient"/>
  </defs>
  <g id="Group_35637" data-name="Group 35637" transform="translate(4436.117 15223.181)">
    <path id="Path_29587" data-name="Path 29587" d="M443.729,789.658H224.321a.329.329,0,1,1,0-.658H443.729a.329.329,0,1,1,0,.658Z" transform="translate(-4660.109 -15859.348)" fill="#b4c4d3"/>
    <g id="Group_35567" data-name="Group 35567" transform="translate(-4428.403 -15192.647)">
      <path id="Path_29438" data-name="Path 29438" d="M438.947,358.2H295.209a6.482,6.482,0,0,0-6.549,6.412V447.1a6.482,6.482,0,0,0,6.549,6.412H438.947A6.482,6.482,0,0,0,445.5,447.1V364.612A6.482,6.482,0,0,0,438.947,358.2Z" transform="translate(-253.168 -330.652)" fill="url(#linear-gradient)"/>
      <circle id="Ellipse_1479" data-name="Ellipse 1479" cx="13.386" cy="13.386" r="13.386" transform="translate(35.492 87.841)" fill="#6c63ff"/>
      <g id="Group_35563" data-name="Group 35563" transform="translate(0 41.526)">
        <path id="Path_22797" data-name="Path 22797" d="M59.332,43.459A81.631,81.631,0,0,1,71.8,51.315c1.213.905.178,21.175.178,21.175s3.694-18.643,4.387-18.044A105.343,105.343,0,0,1,91.424,70.564c.325.43-3.321,6.569-3,7.009,7.915,10.835,18.81,19.035,21.145,35.653,0,0,1.548,10.157.4,9.545s-40.9,2.019-40.9,2.019-6.358-7.241-10.98-20.334c-.259-.732,11.378-1.085,11.132-1.855-.294-.917-12.468-2.257-12.74-3.225a84.112,84.112,0,0,1-3.1-22.132c-.007-.925,16.246,1.683,16.246,1.683s-16.143-6.868-16.065-8.083A101.27,101.27,0,0,1,59.332,43.459Z" transform="translate(-53.382 -43.459)" fill="#e1a070"/>
        <path id="Path_22798" data-name="Path 22798" d="M72.992,43.459a81.631,81.631,0,0,1,12.469,7.856c1.213.905.178,21.175.178,21.175s3.694-18.643,4.387-18.044a105.343,105.343,0,0,1,15.056,16.118c.335.443-1.915,4.4-1.584,4.859,7.9,10.829,17.4,21.206,19.729,37.8,0,0,1.548,10.157.4,9.545S98.152,107.7,98.152,107.7Z" transform="translate(-67.042 -43.459)" fill="#f9b588"/>
      </g>
      <g id="Group_35566" data-name="Group 35566" transform="translate(54.822 0)">
        <g id="Group_35565" data-name="Group 35565" transform="translate(0)">
          <path id="Path_22794" data-name="Path 22794" d="M275.864,61.045a34.585,34.585,0,0,1,1.2,6.129c.073.637-3.272,4.344-3.272,4.344s3.615-2.413,3.632-2.025a44.625,44.625,0,0,1-.542,8.985c-.06.373-4.346.508-4.418.887-.079.419,4.054,1.083,3.96,1.508-1.149,5.216-4.584,19.21-8.672,24.307l-8.247-4.212c-7.371-7.061-6.9-11.825-5.751-14.462.2-.467,6.808,5.418,6.808,5.418s-5.789-7.716-5.588-8.156a100.261,100.261,0,0,1,5-9.707c.265-.439,6.537,7.546,6.8,7.137.117-.18-5.774-8.768-5.657-8.941a19.951,19.951,0,0,1,2.593-3.233c.283-.271,5.069,6.1,5.069,6.1s-3.767-7.128-3.042-7.9C268.159,64.641,271.794,62.839,275.864,61.045Z" transform="translate(-253.094 -61.045)" fill="#84c4e2"/>
          <path id="Path_22795" data-name="Path 22795" d="M288.1,90.619l7.2-16c.159-.1.313-.211.47-.317.54-.363,1.076-.731,1.614-1.1,1.326-.9,2.61-1.861,3.948-2.742,1.6-1.056,1.638-.974,1.638-.974-.07-.254-1.19.467-1.61.71-.659.382-1.211.756-1.859,1.157-1.289.8-2.572,1.6-3.829,2.442l0,0,5.742-12.758s-3.686,7.146-6.8,13.5c-.008-.02-.017-.04-.024-.06-.08-.219-3.218-4.225-3.25-7.3l-.141.208c-.236,3.266,3.029,7.564,3.132,7.734-1.048,2.144-1.348,2.829-2.316,4.919a1.463,1.463,0,0,1-.221-.312l-.355-.535-1.252-1.886c-.968-1.457-1.991-2.877-2.982-4.319-.232-.337-.413-.553-.413-.553s.837,1.544,1.425,2.531c.885,1.488,1.79,2.962,2.7,4.433l.384.618a1.265,1.265,0,0,0,.472.539C289.448,85.605,287.723,89.853,288.1,90.619Z" transform="translate(-278.638 -61.045)" fill="#98d3ea"/>
        </g>
        <path id="Path_22803" data-name="Path 22803" d="M287.969,118.356c2.856,1.25,9.588-2.361,14.188-6.423a40.484,40.484,0,0,0,3.763-3.806c-1.144.345-8.486,2.092-10.579-9.01-.093-.494,7.73,3.383,10.687,8.885a40.885,40.885,0,0,0,5.984-9.21,46.82,46.82,0,0,0,2.783-8.231c-1.237-.131-6.952-1.051-12.155-7.094-.324-.376,8.956-.713,12.232,6.722a39.706,39.706,0,0,0,.776-9.1h-.039q0-.139-.01-.277c0-.053-.012-.107-.017-.161.018.041.037.078.055.119a45.145,45.145,0,0,0-.69-6.361c-.64-.322-3.023-2.014-4.1-9.692-.066-.471,3.65,2.423,4.2,8.587a46.169,46.169,0,0,1,.881,7.091c4.767-7.594,9.615-3.408,9.615-3.408-3.2,2.852-8.89,3.7-9.609,3.569a40.131,40.131,0,0,1-.745,9.609c0,.007-.212.981-.251,1.148a38.588,38.588,0,0,1-2.9,8.146l.01.018-.023.008c-.045.092-.091.183-.137.275,7.3-4.622,13.413-3.2,13.413-3.2-4.539,5.946-12.247,4.315-13.652,3.672a40.88,40.88,0,0,1-4.288,6.631,4.7,4.7,0,0,0-.823,1.02l0,0a41.017,41.017,0,0,1-4.175,4.283,31.117,31.117,0,0,1-9.525,5.98c-2.173.788-3.942.951-4.985.494Z" transform="translate(-279.444 -63.789)" fill="#f0fbff"/>
        <g id="Group_34224" data-name="Group 34224" transform="translate(25.641 10.7)">
          <path id="Path_22805" data-name="Path 22805" d="M359.131,105.429c-.313-.363,7.161-.5,10.541,6.14-.029.027.012.216.013.319C368.347,111.789,363.925,111,359.131,105.429Z" transform="translate(-359.122 -105.291)" fill="#cff0f9"/>
        </g>
        <g id="Group_34225" data-name="Group 34225" transform="translate(35.495 21.669)">
          <path id="Path_22806" data-name="Path 22806" d="M399.965,156.041c4.578-7.876,10.708-4.8,10.708-4.8-3.12,3.259-9.211,5.114-10.8,5.255,0,0,.1-.419.094-.453A.006.006,0,0,1,399.965,156.041Z" transform="translate(-399.871 -150.652)" fill="#cff0f9"/>
        </g>
      </g>
      <g id="Group_35564" data-name="Group 35564" transform="translate(43.401 35.174)">
        <rect id="Rectangle_18973" data-name="Rectangle 18973" width="146.891" height="86.42" rx="24.81" fill="#f0592b"/>
        <rect id="Rectangle_18975" data-name="Rectangle 18975" width="146.891" height="19.204" transform="translate(0 14.403)" opacity="0.143"/>
        <rect id="Rectangle_18976" data-name="Rectangle 18976" width="114.884" height="9.311" transform="translate(16.005 41.846)" fill="#fff" opacity="0.45"/>
        <circle id="Ellipse_1480" data-name="Ellipse 1480" cx="13.386" cy="13.386" r="13.386" transform="translate(13.966 52.667)" fill="#f36a20"/>
      </g>
    </g>
    <g id="Group_35568" data-name="Group 35568" transform="translate(-4293.068 -15223.181)">
      <path id="Path_29439" data-name="Path 29439" d="M822.167,227.1a2.93,2.93,0,0,0,1.29,1.631c2.776,1.834,8.812,1.444,9.537,1.444.154,0,.356.275.58.737a51,51,0,0,1,2.831,10.1c.148,1.755,1.779,9.969,4.45,13.029.082.094.163.181.242.263,2.619,2.631,5.691-.263,5.691-.263l.441-1.532c-.124.6-.263,1.308-.4,2.1-.069.4-.139.816-.205,1.248a47.817,47.817,0,0,0-.625,7.362,26.687,26.687,0,0,0,.115,2.683c.024.248.051.492.085.731a25.615,25.615,0,0,1,.2,3.275,89.016,89.016,0,0,1-1.683,14.588l.063-.021c-.039.2-.063.3-.063.3l.1-.03q-.069.45-.133.921c-.562,4.078-.885,9.154-1.039,12.084a24.194,24.194,0,0,0,.205,4.628l2.948,20.757V332.8a17.067,17.067,0,0,0,.532,4.344c.961,3.652.169,16.4-.275,22.449-.124,1.649-.221,2.8-.248,3.136v.1l.085-.033v.106a1.712,1.712,0,0,1,.393-.115c-1.169,1.813-3.287,4.809-4.915,5.314a5.157,5.157,0,0,0-2.456,1.628l-.042.057-.06.085a1.811,1.811,0,0,0-.353.924,1.017,1.017,0,0,1-.054-.178c-.124.674.281,1.29,1.553,1.589a10.453,10.453,0,0,0,2.251.181c4.411,0,12.238-1.356,13.1-2.816V364.54l.142.045v.045l.541.178,1.483-4.979c1.779-1.317.3-24.89,0-30.306-.272-4.936,2.782-24.573,3.323-28.031l-.073-.088.082-.5a2.143,2.143,0,0,1,.3.266,3.951,3.951,0,0,1,.462.683,9.134,9.134,0,0,1,.656,1.353c2.985,7.444,4.329,28.729,4.329,30.639v20.017a20.846,20.846,0,0,0,.816,5.84,25.039,25.039,0,0,1,.634,3.039c.063.4.118.8.169,1.181s.1.816.142,1.172a2.445,2.445,0,0,0,.03.269.531.531,0,0,1,0,.124c.082.788.124,1.305.124,1.305a.3.3,0,0,1,.06-.118l.015.19a.407.407,0,0,1,.118-.187,2.856,2.856,0,0,1,.4-.326v2.544l-.073-.054v.438c3.075,2.32,8.081,3.021,11.924,2.994a15.253,15.253,0,0,0,5.211-.653c1-.492.453-1.64-.459-2.519a3.446,3.446,0,0,0-2.211-1.142c-.973.106-4.3-3.661-6.042-5.725l.2-.088.278-.121V328.645s.447-13.177,1.779-26.21a46.366,46.366,0,0,0-2.281-19.443l-.042-.124.4.063c.429.066.659.106.659.106a2.508,2.508,0,0,0-.027-.3h.027s-.52-5.652-.526-12.751c0-8.048.68-17.86,3.492-23.412a16.517,16.517,0,0,0,2.115-7.746,8.1,8.1,0,0,0-1.447-4.954,3.927,3.927,0,0,0-1.665-1.317l-.057-.033h-.03a4.14,4.14,0,0,0-1.529-.3h-6.075a4.057,4.057,0,0,1-2.006-.529l-2.377-1.347a12.058,12.058,0,0,1-.737-5.888c0-.16.03-.32.045-.477l.172-.181c.133-.142.257-.3.378-.438a3.364,3.364,0,0,1-.027.356c-.03.19-.082.3-.163.326,1.3-.169,2.749-.426,3.547-1.429.033-.039.063-.082.094-.124a6.47,6.47,0,0,0,.583-1.208,3.514,3.514,0,0,1,.444-.81c.2-.26.459-.471.674-.719l.036-.042a5.217,5.217,0,0,0,.816-3.39c.015-2.876-.07-6.042-1.994-8.2-1.6-1.794-4.148-2.474-6.568-2.553s-4.833.356-7.25.369c-1.643,0-3.625-.027-4.531,1.332-.444.668-.5,1.541-.982,2.181-.278.369-.7.686-.728,1.145a1.176,1.176,0,0,0,.157.6v.021a4.274,4.274,0,0,0,3.13,2.1,7.788,7.788,0,0,0-.6.834,7.939,7.939,0,0,0-1.208,4.229,4.948,4.948,0,0,0,.018.52,7.984,7.984,0,0,0,2.532,5.32c-.024.169-.048.338-.076.5l.054.048q.257.233.535.441l.066.051v.3a5.065,5.065,0,0,1-.018.526c-.018.172,0,.278-.018.417l-.039-.033-2.951-2.465-4.746-4.392s-11.866-8.637-12.461-4.531a2.958,2.958,0,0,0,.565,2.048c2.178,3.323,9.667,6.151,9.667,6.151a63.3,63.3,0,0,1,7.453,9.812c-.106.057-.211.112-.323.163-2.659,1.236-6.537.713-6.537.713-4.48.7-4.885,5.607-4.861,7.592v.411l-5.945-13.96-.018-.042a2.939,2.939,0,0,0-2.223-1.746C831.272,225.564,821.336,224.171,822.167,227.1Zm24.89,135.641a2.59,2.59,0,0,1,.263-.048l-.027.042Z" transform="translate(-822.118 -205.559)" fill="url(#linear-gradient-2)"/>
      <path id="Path_29440" data-name="Path 29440" d="M986.641,716.43s5.631,7.078,6.933,6.933,4.332,2.743,2.6,3.625-11.7,1.444-16.615-2.311v-5.658Z" transform="translate(-931.997 -562.098)" fill="#aca9c9"/>
      <path id="Path_29441" data-name="Path 29441" d="M889.26,717.86s-3.323,5.921-5.631,6.646-4.332,3.323-1.3,4.045,13.866-.867,14.875-2.6v-7.658Z" transform="translate(-863.071 -563.096)" fill="#aca9c9"/>
      <path id="Path_29442" data-name="Path 29442" d="M894.45,472.793l2.87,20.476v9.519a17.061,17.061,0,0,0,.52,4.284c.937,3.6.166,16.177-.269,22.144-.142,1.945-.251,3.19-.251,3.19,1.876-.867,9.821,1.876,9.821,1.876l.8-2.734.64-2.175c1.734-1.3.3-24.551,0-29.908-.2-3.658,1.435-15.519,2.48-22.627.3-2.009.547-3.625.695-4.6.094-.6.145-.94.145-.94a3.163,3.163,0,0,1,.779.94,9.036,9.036,0,0,1,.637,1.335c2.906,7.344,4.229,28.34,4.229,30.21V523.53a20.822,20.822,0,0,0,.794,5.761,30.209,30.209,0,0,1,.782,4.16c.205,1.568.3,2.831.3,2.831.145-.867,9.1-4.767,9.1-4.767V498.586s.432-12.99,1.734-25.853a46.125,46.125,0,0,0-1.662-17.395c-.359-1.23-.719-2.272-1.03-3.1-.529-1.4-.906-2.181-.906-2.181h-29.5c-.5.094-.906,1.091-1.278,2.6-.242,1.015-.453,2.26-.637,3.625-.547,4.021-.861,9.027-1.012,11.921A24.131,24.131,0,0,0,894.45,472.793Z" transform="translate(-872.432 -376.197)" fill="#618fd8"/>
      <g id="Group_35562" data-name="Group 35562" transform="translate(24.96 73.954)" opacity="0.1">
        <path id="Path_29443" data-name="Path 29443" d="M986.3,531.817V498.889s.432-12.99,1.734-25.853a45.037,45.037,0,0,0-3.625-22.675h.577a45.3,45.3,0,0,1,3.625,22.675c-1.284,12.854-1.734,25.853-1.734,25.853v32.928s-8.954,3.9-9.1,4.767a4.327,4.327,0,0,0-.045-.526A84.19,84.19,0,0,1,986.3,531.817Z" transform="translate(-955.68 -450.36)"/>
        <path id="Path_29444" data-name="Path 29444" d="M905.535,722.323a2.243,2.243,0,0,0-.795.163v-.145A5.17,5.17,0,0,1,905.535,722.323Z" transform="translate(-904.74 -640.158)"/>
        <path id="Path_29445" data-name="Path 29445" d="M936.91,578.689c1.734-1.3.3-24.551,0-29.908s3.323-28.161,3.323-28.161a2.522,2.522,0,0,1,.5.514c-.532,3.408-3.5,22.781-3.241,27.648.3,5.344,1.734,28.6,0,29.908l-1.444,4.909-.526-.175Z" transform="translate(-926.221 -499.395)"/>
      </g>
      <path id="Path_29446" data-name="Path 29446" d="M852.009,291.295l-3.021,10.688s-3.178,3.021-5.776,0-4.2-11.12-4.356-12.854-2.456-10.688-3.323-10.688-9.531.577-10.543-3.021c-.81-2.894,8.864-1.511,12.736-.861a2.87,2.87,0,0,1,2.166,1.722l5.939,14.183S848.976,286.818,852.009,291.295Z" transform="translate(-824.088 -253.082)" fill="#f7c4a7"/>
      <path id="Path_29447" data-name="Path 29447" d="M942.035,249.82s-3.755,10.543,1.012,14.3S926,268.885,926,268.885l2.961-2.816s2.093-8.3.649-15.238Z" transform="translate(-894.617 -236.449)" fill="#f7c4a7"/>
      <path id="Path_29448" data-name="Path 29448" d="M914.806,292.649s3.828-.94,3.828-1.949l3.392,1.949h8.522s6.211,3.465,1.012,13.866-2.888,35.949-2.888,35.949-18.485-3.323-33.8,1.734c0,0,2.311-11.41,1.444-17.908s1.444-15.6,1.444-15.6l1.3-5.489s-.072-5.136-5.417-2.529c0,0-.795-7.438,4.695-8.3,0,0,6.344.867,8.232-2.311C906.574,292.072,910.764,294.528,914.806,292.649Z" transform="translate(-872.011 -264.979)" opacity="0.1"/>
      <path id="Path_29449" data-name="Path 29449" d="M914.806,291.7s3.828-.939,3.828-1.949l2.486,1.429a3.928,3.928,0,0,0,1.952.52h5.96a3.927,3.927,0,0,1,3.193,1.625c1.369,1.924,2.595,5.719-.665,12.241-5.2,10.4-2.888,35.949-2.888,35.949s-18.485-3.323-33.8,1.734c0,0,2.311-11.41,1.444-17.908s1.444-15.576,1.444-15.576l1.3-5.489s-.073-5.136-5.417-2.529c0,0-.773-7.232,4.468-8.265a1.479,1.479,0,0,1,.444-.03c1.121.118,6.344.5,8.018-2.335C906.574,291.119,910.764,293.575,914.806,291.7Z" transform="translate(-872.01 -264.316)" fill="#e14b5a"/>
      <path id="Path_29450" data-name="Path 29450" d="M958.345,313.474s-4.622,2.888-12.132,0c0,0-8.232-3.021-10.833-8.954s13.141,1.012,13.141,1.012,3.323,0,4.332-.722S960.943,310.3,958.345,313.474Z" transform="translate(-900.961 -272.951)" opacity="0.1"/>
      <path id="Path_29451" data-name="Path 29451" d="M915.916,267.188s-4.622,2.888-12.132,0c0,0-8.232-3.021-10.833-8.954s-8.664-12.431-8.664-12.431-10.543-4.045-9.969-8.087,12.132,4.477,12.132,4.477l4.622,4.332,15.02,12.709s3.323,0,4.332-.722S918.514,264.01,915.916,267.188Z" transform="translate(-858.532 -227.242)" fill="#f7c4a7"/>
      <path id="Path_29452" data-name="Path 29452" d="M937.49,252.262l12.419-1.012a28.51,28.51,0,0,0-1.3,5.882,7.936,7.936,0,0,1-11.117.3A14.115,14.115,0,0,0,937.49,252.262Z" transform="translate(-902.636 -237.447)" opacity="0.1"/>
      <circle id="Ellipse_1481" data-name="Ellipse 1481" cx="7.942" cy="7.942" r="7.942" transform="translate(32.473 5.792)" fill="#f7c4a7"/>
      <path id="Path_29453" data-name="Path 29453" d="M938.568,224.207c-.465-.767.48-1.767.169-2.607-.287-.773-1.429-.906-1.812-1.628-.3-.583,0-1.3-.121-1.942a2,2,0,0,0-1.915-1.39,6.835,6.835,0,0,0-2.474.547,9.5,9.5,0,0,1-4.075.628,4.273,4.273,0,0,1-3.365-2.136,1.208,1.208,0,0,1-.154-.586c.024-.453.441-.764.71-1.127.471-.631.526-1.492.955-2.151.876-1.341,2.8-1.308,4.4-1.314,2.356,0,4.7-.441,7.057-.363a8.79,8.79,0,0,1,6.4,2.516c1.873,2.13,1.957,5.247,1.942,8.087a5.148,5.148,0,0,1-.794,3.344c-.217.263-.483.48-.692.749-.453.6-.574,1.378-1,1.991-.755,1.091-2.229,1.356-3.544,1.532.387-.051.067-2.64,0-2.879C940,224.289,939.722,224.313,938.568,224.207Z" transform="translate(-893.794 -208.748)" opacity="0.1"/>
      <path id="Path_29454" data-name="Path 29454" d="M938.568,223.257c-.465-.767.48-1.767.169-2.607-.287-.773-1.429-.906-1.812-1.628-.3-.583,0-1.3-.121-1.942a2,2,0,0,0-1.915-1.39,6.834,6.834,0,0,0-2.474.547,9.5,9.5,0,0,1-4.075.628,4.273,4.273,0,0,1-3.365-2.136,1.208,1.208,0,0,1-.154-.586c.024-.453.441-.764.71-1.127.471-.631.526-1.492.955-2.151.876-1.341,2.8-1.308,4.4-1.314,2.356,0,4.7-.441,7.057-.363a8.79,8.79,0,0,1,6.4,2.516c1.873,2.13,1.957,5.247,1.942,8.087a5.148,5.148,0,0,1-.794,3.344c-.217.263-.483.48-.692.749-.453.6-.574,1.378-1,1.991-.755,1.091-2.229,1.356-3.544,1.532.387-.051.067-2.64,0-2.879C940,223.323,939.722,223.36,938.568,223.257Z" transform="translate(-893.794 -208.085)" fill="#281c1c"/>
      <path id="Path_29455" data-name="Path 29455" d="M994.345,316.583s-3.9-10.111-6.933-10.4,5.776,0,5.776,0l2.888,5.2Z" transform="translate(-937.034 -275.697)" opacity="0.1"/>
      <path id="Path_29456" data-name="Path 29456" d="M995.305,316.583s-3.9-10.111-6.933-10.4,5.776,0,5.776,0l2.888,5.2Z" transform="translate(-937.704 -275.697)" fill="#e14b5a"/>
      <path id="Path_29457" data-name="Path 29457" d="M976.65,716.277c.205,1.568.3,2.831.3,2.831.145-.867,9.1-4.767,9.1-4.767v-2.347a3.978,3.978,0,0,0-.683.033A12.883,12.883,0,0,0,980.535,714a44.075,44.075,0,0,1-3.885,2.275Z" transform="translate(-929.966 -559)" fill="#618fd8"/>
      <path id="Path_29458" data-name="Path 29458" d="M976.65,716.277c.205,1.568.3,2.831.3,2.831.145-.867,9.1-4.767,9.1-4.767v-2.347a3.978,3.978,0,0,0-.683.033A12.883,12.883,0,0,0,980.535,714a44.075,44.075,0,0,1-3.885,2.275Z" transform="translate(-929.966 -559)" opacity="0.3"/>
      <path id="Path_29459" data-name="Path 29459" d="M904.5,714.832c1.876-.867,9.821,1.876,9.821,1.876l.8-2.734c-1.387-.281-2.764-.631-4.118-1.048a13.7,13.7,0,0,1-1.849-.683,12.381,12.381,0,0,0-1.233-.574,6.394,6.394,0,0,0-3.178-.027C904.609,713.588,904.5,714.832,904.5,714.832Z" transform="translate(-879.613 -558.624)" fill="#618fd8"/>
      <path id="Path_29460" data-name="Path 29460" d="M904.5,714.832c1.876-.867,9.821,1.876,9.821,1.876l.8-2.734c-1.387-.281-2.764-.631-4.118-1.048a13.7,13.7,0,0,1-1.849-.683,12.381,12.381,0,0,0-1.233-.574,6.394,6.394,0,0,0-3.178-.027C904.609,713.588,904.5,714.832,904.5,714.832Z" transform="translate(-879.613 -558.624)" opacity="0.3"/>
      <path id="Path_29461" data-name="Path 29461" d="M995.915,744.551a.864.864,0,0,0,.5-.574.849.849,0,0,1-.5,1.006c-1.734.867-11.7,1.444-16.615-2.311v-.432C984.218,746,994.181,745.418,995.915,744.551Z" transform="translate(-931.816 -580.111)" fill="#fff" opacity="0.4"/>
      <path id="Path_29462" data-name="Path 29462" d="M882.081,745.791c3.021.722,13.866-.867,14.875-2.6v.432c-1.012,1.734-11.842,3.323-14.875,2.6-1.239-.3-1.634-.906-1.51-1.568C880.667,745.145,881.12,745.549,882.081,745.791Z" transform="translate(-862.897 -580.774)" fill="#fff" opacity="0.4"/>
      <path id="Path_29463" data-name="Path 29463" d="M915.472,402.491s-3.178-1.012-4.045,0-8.277,3.383-8.277,3.383" transform="translate(-878.67 -342.684)" opacity="0.1"/>
      <rect id="Rectangle_18977" data-name="Rectangle 18977" width="15.452" height="0.326" transform="translate(16.296 20.123) rotate(180)" fill="#8ed16f"/>
      <rect id="Rectangle_18978" data-name="Rectangle 18978" width="15.452" height="0.326" transform="translate(16.296 20.449) rotate(180)" fill="#8ed16f"/>
      <rect id="Rectangle_18979" data-name="Rectangle 18979" width="15.452" height="0.326" transform="translate(16.296 20.449) rotate(180)" opacity="0.1"/>
      <rect id="Rectangle_18980" data-name="Rectangle 18980" width="15.452" height="0.326" transform="translate(16.296 20.776) rotate(180)" fill="#8ed16f"/>
      <rect id="Rectangle_18981" data-name="Rectangle 18981" width="15.452" height="0.326" transform="translate(16.296 21.099) rotate(180)" fill="#8ed16f"/>
      <rect id="Rectangle_18982" data-name="Rectangle 18982" width="15.452" height="0.326" transform="translate(16.296 21.099) rotate(180)" opacity="0.1"/>
      <rect id="Rectangle_18983" data-name="Rectangle 18983" width="15.452" height="0.326" transform="translate(16.296 21.425) rotate(180)" fill="#8ed16f"/>
      <rect id="Rectangle_18984" data-name="Rectangle 18984" width="15.452" height="0.326" transform="translate(16.296 21.748) rotate(180)" fill="#8ed16f"/>
      <rect id="Rectangle_18985" data-name="Rectangle 18985" width="15.452" height="0.326" transform="translate(16.296 21.748) rotate(180)" opacity="0.1"/>
      <rect id="Rectangle_18986" data-name="Rectangle 18986" width="15.452" height="0.326" transform="translate(16.296 22.075) rotate(180)" fill="#8ed16f"/>
      <rect id="Rectangle_18987" data-name="Rectangle 18987" width="15.452" height="0.326" transform="translate(16.296 22.398) rotate(180)" fill="#8ed16f"/>
      <rect id="Rectangle_18988" data-name="Rectangle 18988" width="15.452" height="0.326" transform="translate(16.296 22.398) rotate(180)" opacity="0.1"/>
      <rect id="Rectangle_18989" data-name="Rectangle 18989" width="15.452" height="0.326" transform="translate(16.296 17.525) rotate(180)" fill="#8ed16f"/>
      <rect id="Rectangle_18992" data-name="Rectangle 18992" width="15.452" height="0.326" transform="translate(16.296 17.848) rotate(180)" fill="#8ed16f"/>
      <rect id="Rectangle_18993" data-name="Rectangle 18993" width="15.452" height="0.326" transform="translate(16.296 17.848) rotate(180)" opacity="0.1"/>
      <rect id="Rectangle_18994" data-name="Rectangle 18994" width="15.452" height="0.326" transform="translate(16.296 18.178) rotate(180)" fill="#8ed16f"/>
      <rect id="Rectangle_18995" data-name="Rectangle 18995" width="15.452" height="0.326" transform="translate(16.296 18.501) rotate(180)" fill="#8ed16f"/>
      <rect id="Rectangle_18996" data-name="Rectangle 18996" width="15.452" height="0.326" transform="translate(16.296 18.501) rotate(180)" opacity="0.1"/>
      <rect id="Rectangle_18997" data-name="Rectangle 18997" width="15.452" height="0.326" transform="translate(16.296 18.824) rotate(180)" fill="#8ed16f"/>
      <rect id="Rectangle_18998" data-name="Rectangle 18998" width="15.452" height="0.326" transform="translate(16.296 19.15) rotate(180)" fill="#8ed16f"/>
      <rect id="Rectangle_18999" data-name="Rectangle 18999" width="15.452" height="0.326" transform="translate(16.296 19.15) rotate(180)" opacity="0.1"/>
      <rect id="Rectangle_19000" data-name="Rectangle 19000" width="15.452" height="0.326" transform="translate(16.296 19.474) rotate(180)" fill="#8ed16f"/>
      <rect id="Rectangle_19001" data-name="Rectangle 19001" width="15.452" height="0.326" transform="translate(16.296 19.8) rotate(180)" fill="#8ed16f"/>
      <rect id="Rectangle_19002" data-name="Rectangle 19002" width="15.452" height="0.326" transform="translate(16.296 19.8) rotate(180)" opacity="0.1"/>
    </g>
  </g>
</svg>
