<svg xmlns="http://www.w3.org/2000/svg" width="250" height="158.298" viewBox="0 0 250 158.298">
  <g id="Group_35726" data-name="Group 35726" transform="translate(-101.739 -90.785)">
    <g id="Group_35725" data-name="Group 35725" transform="translate(101.739 90.785)">
      <path id="Path_29593" data-name="Path 29593" d="M583.671,406.551a81.883,81.883,0,0,0-105.256-10.362q-.561.387-1.115.783c6.67-18.546-1.155-37.563-24.27-41.668-10.964-1.947-23.467-.676-33.588,4.069-12.964,6.078-23.823,18.427-28.459,31.957-4.388,12.808-3.294,30.67,9.342,38.339a32.417,32.417,0,0,0,8.918,3.637,39.833,39.833,0,0,0-13.151,9.285c-6.043,6.673-8.987,15.689-9.849,24.65a56.443,56.443,0,0,0,4.567,27.38H602.944C605.192,465.038,605.7,429.242,583.671,406.551Z" transform="translate(-367.224 -336.709)" fill="#f1f2f5"/>
      <g id="Group_35702" data-name="Group 35702" transform="translate(9.163 132.989)">
        <g id="Group_35701" data-name="Group 35701">
          <path id="Path_29594" data-name="Path 29594" d="M285.083,1583.289a55.1,55.1,0,0,1,6.8-.544,36.445,36.445,0,0,1-.62-10.414,14.761,14.761,0,0,1,10.667,2.91,26.818,26.818,0,0,1,3.174-12.342,23.436,23.436,0,0,1,9.01,10.982,54.45,54.45,0,0,1,3.715,13.942H287.8A6.34,6.34,0,0,1,285.083,1583.289Z" transform="translate(-285.083 -1562.9)" fill="#e1a070"/>
        </g>
        <path id="Path_29595" data-name="Path 29595" d="M461.755,1692.288a14.9,14.9,0,0,0,.291,1.473c.117.486.257.965.412,1.438a18.323,18.323,0,0,0,1.159,2.748c.229.441.482.87.748,1.29s.558.823.863,1.217a17.307,17.307,0,0,0,2.05,2.181,12.4,12.4,0,0,1-2.209-2.052l-.241-.292c-.082-.1-.153-.2-.23-.3-.155-.2-.3-.41-.44-.617-.277-.423-.536-.857-.773-1.3s-.443-.909-.632-1.378a14.853,14.853,0,0,1-.49-1.432,14.329,14.329,0,0,1-.342-1.472A10.432,10.432,0,0,1,461.755,1692.288Z" transform="translate(-444.903 -1679.946)" fill="#1d2238"/>
        <path id="Path_29596" data-name="Path 29596" d="M356.424,1770.957a13.287,13.287,0,0,0,.688,1.294,9.451,9.451,0,0,0,.837,1.182,6.308,6.308,0,0,0,.488.531,5.926,5.926,0,0,0,.541.476,5.858,5.858,0,0,0,1.25.742,3.816,3.816,0,0,1-1.37-.575,5.154,5.154,0,0,1-1.111-1.006,7.211,7.211,0,0,1-.444-.6,7,7,0,0,1-.37-.648A5.9,5.9,0,0,1,356.424,1770.957Z" transform="translate(-349.619 -1751.112)" fill="#1d2238"/>
      </g>
      <g id="Group_35704" data-name="Group 35704" transform="translate(129.189 125.983)">
        <path id="Path_29597" data-name="Path 29597" d="M1543.6,1521.365c-.949-6.89,1.9-13.9,6.348-19.246s10.385-9.235,16.435-12.665a28.488,28.488,0,0,1-2.209,19.3,8.565,8.565,0,0,1,4.872-4.023,25.449,25.449,0,0,1,6.353-1.16,12.019,12.019,0,0,1-2.121,11.906,24.233,24.233,0,0,1,11.557-.5,14.96,14.96,0,0,1-.274,6.344Z" transform="translate(-1543.415 -1489.454)" fill="#84c4e2"/>
        <g id="Group_35703" data-name="Group 35703" transform="translate(9.769 19.301)">
          <path id="Path_29598" data-name="Path 29598" d="M1656.82,1691.8a15.061,15.061,0,0,1-.757,1.97,20.964,20.964,0,0,1-.98,1.875c-.354.611-.745,1.2-1.156,1.775s-.859,1.124-1.321,1.659-.965,1.035-1.481,1.52c-.266.234-.524.475-.8.7-.137.112-.27.229-.41.336l-.423.32c-.139.109-.287.206-.43.309s-.286.207-.437.3c-.3.188-.593.382-.9.554a16.728,16.728,0,0,1-1.891.937,26.393,26.393,0,0,0,3.45-2.369q.806-.662,1.558-1.385c.5-.485.979-.986,1.437-1.508s.9-1.061,1.317-1.615.817-1.126,1.2-1.708.742-1.18,1.079-1.792S1656.533,1692.444,1656.82,1691.8Z" transform="translate(-1645.832 -1691.803)" fill="#1d2238"/>
          <path id="Path_29599" data-name="Path 29599" d="M1793.448,1762.276a10.2,10.2,0,0,1-1.354,1.592,14.116,14.116,0,0,1-1.595,1.356l-.211.155-.216.148c-.146.1-.289.2-.437.289-.3.18-.594.367-.908.523a11.064,11.064,0,0,1-1.924.816c.587-.379,1.179-.726,1.749-1.11.288-.186.568-.384.852-.575.141-.1.279-.2.418-.3l.21-.147.206-.154c.554-.4,1.093-.826,1.627-1.257S1792.925,1762.736,1793.448,1762.276Z" transform="translate(-1773.357 -1755.554)" fill="#1d2238"/>
        </g>
      </g>
      <g id="Group_35710" data-name="Group 35710" transform="translate(34.075 39.296)">
        <g id="Group_35707" data-name="Group 35707">
          <rect id="Rectangle_19008" data-name="Rectangle 19008" width="97.217" height="29.029" transform="translate(3.904 53.332)" fill="#1d2238"/>
          <g id="Group_35705" data-name="Group 35705" transform="translate(9.519)">
            <rect id="Rectangle_19009" data-name="Rectangle 19009" width="85.954" height="85.954" transform="translate(0.095 0.095)" fill="#fff"/>
            <path id="Path_29600" data-name="Path 29600" d="M732.2,666.786H646.053V580.642H732.2Zm-85.954-.191h85.763V580.833H646.244Z" transform="translate(-646.053 -580.642)" fill="#d2d6e1"/>
          </g>
          <path id="Path_29601" data-name="Path 29601" d="M651.149,1202.715a3.787,3.787,0,0,0,.291-1.46v-57.682a3.8,3.8,0,0,0-5.87-3.183l-36.215,23.58-10.506-9.739-10.506,9.739-36.215-23.58a3.8,3.8,0,0,0-5.87,3.183v57.682a3.787,3.787,0,0,0,.291,1.46l.126.27a3.8,3.8,0,0,0,3.381,2.068h97.586a3.8,3.8,0,0,0,3.381-2.068Z" transform="translate(-546.258 -1086.436)" fill="#f0592b"/>
          <path id="Path_29602" data-name="Path 29602" d="M546.258,1333.45q6.479-6.047,13.008-12.039l6.527-5.994,6.538-5.982q6.534-5.986,13.1-11.937l13.132-11.9.287-.26.287.26,13.133,11.9,6.554,5.964,6.546,5.972,6.538,5.982,6.527,5.994q6.515,6.008,13.007,12.04-6.669-5.836-13.289-11.728l-6.621-5.89-6.61-5.9-6.6-5.912-6.594-5.92-13.163-11.867h.573L585.972,1298.1q-6.6,5.916-13.2,11.831l-6.61,5.9-6.621,5.89Q552.913,1327.6,546.258,1333.45Z" transform="translate(-546.258 -1218.12)" fill="#1d2238"/>
          <g id="Group_35706" data-name="Group 35706" transform="translate(17.932 27.927)">
            <path id="Path_29603" data-name="Path 29603" d="M734.252,873.871c5.8-.184,11.6-.28,17.4-.345l2.175-.026,2.175-.017,4.349-.031,8.7-.025,8.7.023,4.349.031,2.175.017,2.175.026c5.8.065,11.6.162,17.4.346-5.8.185-11.6.281-17.4.346l-2.175.026-2.175.017-4.349.031-8.7.023-8.7-.025L756,874.258l-2.175-.017-2.175-.026C745.851,874.15,740.051,874.054,734.252,873.871Z" transform="translate(-734.252 -873.427)" fill="#d2d6e1"/>
            <path id="Path_29604" data-name="Path 29604" d="M734.252,950.934c5.8-.184,11.6-.28,17.4-.345l2.175-.026,2.175-.017,4.349-.031,8.7-.025,8.7.023,4.349.031,2.175.017,2.175.026c5.8.065,11.6.162,17.4.346-5.8.185-11.6.281-17.4.346l-2.175.026-2.175.016-4.349.031-8.7.023-8.7-.025L756,951.321l-2.175-.017-2.175-.026C745.851,951.213,740.051,951.117,734.252,950.934Z" transform="translate(-734.252 -943.139)" fill="#d2d6e1"/>
            <path id="Path_29605" data-name="Path 29605" d="M734.252,1028c5.8-.184,11.6-.28,17.4-.345l2.175-.026,2.175-.017,4.349-.031,8.7-.025,8.7.023,4.349.031,2.175.016,2.175.026c5.8.065,11.6.162,17.4.346-5.8.185-11.6.281-17.4.346l-2.175.026-2.175.016-4.349.031-8.7.023-8.7-.025-4.349-.031-2.175-.017-2.175-.026C745.851,1028.276,740.051,1028.18,734.252,1028Z" transform="translate(-734.252 -1012.852)" fill="#d2d6e1"/>
            <path id="Path_29606" data-name="Path 29606" d="M734.252,1105.06c5.8-.184,11.6-.28,17.4-.345l2.175-.026,2.175-.017,4.349-.031,8.7-.025,8.7.023,4.349.031,2.175.016,2.175.026c5.8.065,11.6.162,17.4.346-5.8.185-11.6.281-17.4.346l-2.175.026-2.175.016-4.349.031-8.7.023-8.7-.025-4.349-.031-2.175-.017-2.175-.026C745.851,1105.339,740.051,1105.243,734.252,1105.06Z" transform="translate(-734.252 -1082.564)" fill="#d2d6e1"/>
            <path id="Path_29607" data-name="Path 29607" d="M734.252,1182.123c5.8-.184,11.6-.28,17.4-.345l2.175-.026,2.175-.017,4.349-.031,8.7-.025,8.7.023,4.349.031,2.175.016,2.175.026c5.8.065,11.6.162,17.4.346-5.8.185-11.6.281-17.4.346l-2.175.026-2.175.017-4.349.031-8.7.023-8.7-.025L756,1182.51l-2.175-.017-2.175-.026C745.851,1182.4,740.051,1182.306,734.252,1182.123Z" transform="translate(-734.252 -1152.276)" fill="#d2d6e1"/>
          </g>
          <path id="Path_29608" data-name="Path 29608" d="M607.6,1145.893l4.411,2.762,4.407,2.768,8.795,5.567,2.2,1.388,2.206,1.381q2.2,1.384,4.363,2.836l2.152,1.463c.712.5,1.43.984,2.137,1.486,1.42,1,2.831,2.011,4.215,3.064l-.048.074c-1.523-.84-3.02-1.72-4.507-2.615-.746-.443-1.483-.9-2.224-1.353l-2.209-1.376q-2.2-1.387-4.359-2.843l-2.155-1.458-2.159-1.452-8.649-5.791-4.314-2.911-4.31-2.917Z" transform="translate(-601.701 -1091.977)" fill="#1d2238"/>
          <path id="Path_29609" data-name="Path 29609" d="M1242.836,1167.685c2.639-1.937,5.325-3.8,8.029-5.64s5.425-3.648,8.163-5.433,5.493-3.544,8.27-5.269,5.566-3.431,8.406-5.06c-2.638,1.938-5.324,3.8-8.028,5.641s-5.425,3.648-8.164,5.432-5.493,3.543-8.271,5.268S1245.676,1166.056,1242.836,1167.685Z" transform="translate(-1176.393 -1092.33)" fill="#1d2238"/>
        </g>
        <g id="Group_35709" data-name="Group 35709" transform="translate(17.678 13.727)">
          <g id="Group_35708" data-name="Group 35708">
            <path id="Path_29610" data-name="Path 29610" d="M737.389,730.972a1.953,1.953,0,0,1-.69.687,1.93,1.93,0,0,1-.949.218,1.628,1.628,0,0,1-1.253-.466,1.9,1.9,0,0,1-.434-1.345,3.171,3.171,0,0,1,.744-2.129,2.28,2.28,0,0,1,1.795-.873,1.59,1.59,0,0,1,.8.186,1.41,1.41,0,0,1,.534.579l.3-.577h.83l-.8,3.159c0,.018-.007.04-.011.065a1.222,1.222,0,0,0-.032.2.414.414,0,0,0,.143.329.551.551,0,0,0,.375.124,1.223,1.223,0,0,0,.579-.164,2.151,2.151,0,0,0,.569-.456,2.8,2.8,0,0,0,.593-.957,3.287,3.287,0,0,0,.2-1.162,2.764,2.764,0,0,0-1.008-2.215,3.945,3.945,0,0,0-2.636-.852,5.421,5.421,0,0,0-1.38.167,3.958,3.958,0,0,0-1.159.507,4.246,4.246,0,0,0-1.5,1.569,4.341,4.341,0,0,0-.528,2.129,3.428,3.428,0,0,0,1.129,2.69,4.353,4.353,0,0,0,3.011,1.008,5.841,5.841,0,0,0,1.744-.264,5.718,5.718,0,0,0,1.571-.766l.361.534a5.893,5.893,0,0,1-3.633,1.224,6.528,6.528,0,0,1-1.892-.259,4.666,4.666,0,0,1-1.515-.765A4.136,4.136,0,0,1,732,731.61a4.356,4.356,0,0,1-.412-1.927,5.073,5.073,0,0,1,.28-1.69,4.844,4.844,0,0,1,.825-1.469,5.2,5.2,0,0,1,1.906-1.466,5.964,5.964,0,0,1,2.477-.5,5.785,5.785,0,0,1,1.7.245,4.255,4.255,0,0,1,1.375.687,3.65,3.65,0,0,1,1.067,1.269,3.608,3.608,0,0,1,.356,1.62,3.818,3.818,0,0,1-.35,1.628,3.535,3.535,0,0,1-1,1.278,2.762,2.762,0,0,1-.809.45,2.709,2.709,0,0,1-.906.154,1.352,1.352,0,0,1-.846-.218.811.811,0,0,1-.275-.676Zm.318-2.286a1.225,1.225,0,0,0-.331-.7.91.91,0,0,0-.66-.248,1.413,1.413,0,0,0-1.172.693,2.832,2.832,0,0,0-.488,1.674,1.213,1.213,0,0,0,.245.814.863.863,0,0,0,.693.286,1.282,1.282,0,0,0,.881-.359,1.8,1.8,0,0,0,.536-.93Z" transform="translate(-731.589 -724.557)" fill="#1d2238"/>
          </g>
          <rect id="Rectangle_19010" data-name="Rectangle 19010" width="56.322" height="8.646" rx="4.323" transform="translate(13.347 0.458)" fill="#f1f2f5"/>
        </g>
      </g>
      <g id="Group_35723" data-name="Group 35723" transform="translate(155.772)">
        <path id="Path_29611" data-name="Path 29611" d="M2075.368,524.024l-.319,4.689-1.984,29.16h0c-6.2-.509-12.064-.592-9.015-12.484l5.243-20.988Z" transform="translate(-2040.22 -490.129)" fill="#eb9481"/>
        <path id="Path_29612" data-name="Path 29612" d="M2137.107,504.845l-.4.829a2.855,2.855,0,0,1-3.021,1.52.829.829,0,0,1-.135-.036l-.89-.317.792-3.9Z" transform="translate(-2103.037 -471.059)" fill="#1d2238"/>
        <g id="Group_35712" data-name="Group 35712" transform="translate(21.936 149.286)">
          <path id="Path_29613" data-name="Path 29613" d="M2065.2,1733.836l-10.576,4.691a4.267,4.267,0,0,0-2.535,4.008h0l23.058-.2-1.282-8.577Z" transform="translate(-2052.085 -1733.762)" fill="#e8505b"/>
          <path id="Path_29614" data-name="Path 29614" d="M2077.526,1806.043c-1.9.122-3.8.193-5.7.247-.949.031-1.9.045-2.849.067l-2.849.038-2.849.011c-.95-.006-1.9,0-2.849-.018-1.9-.021-3.8-.06-5.7-.151,1.9-.123,3.8-.194,5.7-.248.949-.032,1.9-.044,2.849-.067l2.849-.038,2.849-.01c.95.006,1.9,0,2.85.018C2073.725,1805.915,2075.625,1805.954,2077.526,1806.043Z" transform="translate(-2054.479 -1798.996)" fill="#1d2238"/>
          <circle id="Ellipse_1483" data-name="Ellipse 1483" cx="2.094" cy="2.094" r="2.094" transform="translate(15.3 4.459) rotate(-60.409)" fill="#1d2238"/>
          <g id="Group_35711" data-name="Group 35711" transform="translate(3.95 1.584)">
            <path id="Path_29615" data-name="Path 29615" d="M2093.5,1773.911a1.41,1.41,0,0,1,.782-.079,1.847,1.847,0,0,1,.7.272,1.758,1.758,0,0,1,.538.547,1.222,1.222,0,0,1,.187.78l-.044.026a2.764,2.764,0,0,0-.2-.268c-.037-.042-.069-.087-.109-.127l-.118-.119a3.415,3.415,0,0,0-.53-.41,4.521,4.521,0,0,0-.588-.327c-.1-.047-.206-.091-.311-.131s-.21-.082-.317-.114Z" transform="translate(-2093.491 -1771.574)" fill="#1d2238"/>
            <path id="Path_29616" data-name="Path 29616" d="M2121.8,1761.621a1.411,1.411,0,0,1,.783-.079,1.848,1.848,0,0,1,.7.272,1.76,1.76,0,0,1,.538.547,1.223,1.223,0,0,1,.187.78l-.044.026a2.8,2.8,0,0,0-.2-.268c-.037-.042-.07-.088-.109-.127l-.118-.119a3.428,3.428,0,0,0-.53-.41,4.554,4.554,0,0,0-.588-.327c-.1-.047-.206-.091-.311-.131s-.21-.082-.317-.114Z" transform="translate(-2119.09 -1760.456)" fill="#1d2238"/>
            <path id="Path_29617" data-name="Path 29617" d="M2147.991,1750.464a1.409,1.409,0,0,1,.783-.079,1.853,1.853,0,0,1,.7.272,1.757,1.757,0,0,1,.538.547,1.223,1.223,0,0,1,.187.78l-.044.026a2.789,2.789,0,0,0-.2-.268c-.037-.042-.07-.088-.109-.127l-.118-.119a3.4,3.4,0,0,0-.53-.41,4.518,4.518,0,0,0-.587-.327q-.153-.07-.311-.131c-.1-.043-.21-.082-.317-.114Z" transform="translate(-2142.782 -1750.364)" fill="#1d2238"/>
          </g>
        </g>
        <path id="Path_29618" data-name="Path 29618" d="M2151.477,983l-.367,70.646h14.234l3.451-71.724Z" transform="translate(-2119.728 -904.354)" fill="#1d2238"/>
        <path id="Path_29619" data-name="Path 29619" d="M2232.745,1019.069l-10.809-33.779-3.735-33.556-16.929,3.805,5.143,33.19,13,35.324Z" transform="translate(-2165.107 -877.041)" fill="#1d2238"/>
        <g id="Group_35714" data-name="Group 35714" transform="translate(27.686 16.578)">
          <path id="Path_29620" data-name="Path 29620" d="M2113.564,351.328a5.136,5.136,0,0,1-.334-6.143c2.122-3.486,8.267-3.169,8.96-1.508Z" transform="translate(-2112.367 -342.474)" fill="#1d2238"/>
          <rect id="Rectangle_19011" data-name="Rectangle 19011" width="14.015" height="16.517" rx="7.007" transform="translate(1.197 1.846)" fill="#eb9481"/>
          <rect id="Rectangle_19012" data-name="Rectangle 19012" width="7.633" height="13.391" transform="translate(7.71 9.519) rotate(-9.105)" fill="#eb9481"/>
          <path id="Path_29621" data-name="Path 29621" d="M2162.162,428.537a4.956,4.956,0,0,1,.132.551c.02.092.032.184.047.275s.03.184.038.275l.031.275c.01.092.014.184.021.275l.019.275.01.275.01.312-.325,0c-.117,0-.234,0-.351,0h-.143a.5.5,0,0,0-.082.016.372.372,0,0,0-.144.1.34.34,0,0,0-.076.169.352.352,0,0,0,.023.2.624.624,0,0,0,.056.1.468.468,0,0,0,.088.085.664.664,0,0,0,.116.062,1.327,1.327,0,0,0,.16.038c.117.027.234.054.351.092l0,0a.017.017,0,0,1,0,.034l-.351,0c-.058,0-.116,0-.178,0a.655.655,0,0,1-.177-.043.628.628,0,0,1,0-1.159.7.7,0,0,1,.179-.047c.063-.005.12,0,.179,0h.351l-.034.034.005-1.1c0-.367.006-.734.011-1.1a.017.017,0,0,1,.018-.017.017.017,0,0,1,.016.012Z" transform="translate(-2156.409 -420.313)" fill="#1d2238"/>
          <path id="Path_29622" data-name="Path 29622" d="M2191.314,412.39c-.051.179-.5.208-1,.064s-.87-.406-.818-.585.5-.208,1-.064S2191.365,412.211,2191.314,412.39Z" transform="translate(-2182.131 -405.109)" fill="#1d2238"/>
          <path id="Path_29623" data-name="Path 29623" d="M2143.826,410.4c.044.181-.333.428-.842.551s-.957.076-1-.105.333-.428.842-.551S2143.782,410.221,2143.826,410.4Z" transform="translate(-2139.156 -403.766)" fill="#1d2238"/>
          <path id="Path_29624" data-name="Path 29624" d="M2190.014,431.829a.43.43,0,1,1-.43-.43A.43.43,0,0,1,2190.014,431.829Z" transform="translate(-2181.83 -422.917)" fill="#1d2238"/>
          <path id="Path_29625" data-name="Path 29625" d="M2150.766,431.829a.43.43,0,1,1-.43-.43A.43.43,0,0,1,2150.766,431.829Z" transform="translate(-2146.325 -422.917)" fill="#1d2238"/>
          <path id="Path_29626" data-name="Path 29626" d="M2207.9,520.645a7.939,7.939,0,0,0,3.521-1.448s-.337,1.993-3.289,2.894Z" transform="translate(-2198.787 -502.34)" fill="#1d2238"/>
          <path id="Path_29627" data-name="Path 29627" d="M2182.055,351.88s2.074,6.368,7.717,7.342l2.351-1.137S2192.758,347,2182.055,351.88Z" transform="translate(-2175.408 -349.86)" fill="#1d2238"/>
          <g id="Group_35713" data-name="Group 35713" transform="translate(14.364 7.635)">
            <ellipse id="Ellipse_1484" data-name="Ellipse 1484" cx="1.395" cy="1.726" rx="1.395" ry="1.726" fill="#eb9481"/>
            <path id="Path_29628" data-name="Path 29628" d="M2268.879,428.8a.771.771,0,0,1,.227-.476.867.867,0,0,1,.246-.165.814.814,0,0,1,.306-.065.91.91,0,0,1,.6.209,1.163,1.163,0,0,1,.213.226,1.336,1.336,0,0,1,.142.266,1.427,1.427,0,0,1,.074.286c.006.049.01.1.011.146,0,.024,0,.049,0,.073s0,.051-.005.084a.579.579,0,0,1-.072.232.418.418,0,0,1-.114.128.429.429,0,0,1-.15.071.5.5,0,0,1-.226,0,.9.9,0,0,1-.149-.048,2.365,2.365,0,0,1-.427-.25,2.607,2.607,0,0,0-.388-.249l-.008,0a.016.016,0,0,1-.007-.022.016.016,0,0,1,.015-.009,3.89,3.89,0,0,1,.89.266.422.422,0,0,0,.212.016c.063-.016.09-.082.093-.155a1.127,1.127,0,0,0-.077-.44.941.941,0,0,0-.247-.368.688.688,0,0,0-.4-.179.665.665,0,0,0-.423.109.884.884,0,0,0-.3.332.017.017,0,0,1-.023.007.017.017,0,0,1-.009-.016Z" transform="translate(-2268.314 -427.564)" fill="#1d2238"/>
          </g>
          <path id="Path_29629" data-name="Path 29629" d="M2170.453,359.455a4.357,4.357,0,0,0-1.01,4.209s-2.009-3.013.27-4.752Z" transform="translate(-2163.259 -357.344)" fill="#1d2238"/>
        </g>
        <path id="Path_29630" data-name="Path 29630" d="M2138.963,556.046c3.58,15.362,7.391,30.3,10.692,42.433-8.241,5.05-21.489,3.662-26.671,2.086a126.622,126.622,0,0,1-.066-19.923c.75-9.272,2.881-19.175,8.5-22.976C2133.937,557.143,2136.452,556.589,2138.963,556.046Z" transform="translate(-2093.911 -519.096)" fill="#e8505b"/>
        <path id="Path_29631" data-name="Path 29631" d="M2224.059,1175.945c-.5-1.207-.974-2.423-1.461-3.635s-.945-2.434-1.418-3.651l-.706-1.826-.687-1.833-1.372-3.668-.006-.017,0-.022c-.335-1.564-.64-3.134-.952-4.7l-.93-4.707-.882-4.716c-.146-.786-.28-1.575-.42-2.363l-.208-1.182-.2-1.184.03-.006,3.85,18.8v0l5.4,14.705Z" transform="translate(-2177.355 -1049.551)" fill="#4a4e60"/>
        <g id="Group_35716" data-name="Group 35716" transform="translate(47.649 142.526)">
          <path id="Path_29632" data-name="Path 29632" d="M2332.012,1665.386l-8.839,7.465a4.267,4.267,0,0,0-1.312,4.557h0l22.081-6.644-3.632-7.875Z" transform="translate(-2321.658 -1662.889)" fill="#e8505b"/>
          <path id="Path_29633" data-name="Path 29633" d="M2343.636,1730.087c-1.789.648-3.592,1.249-5.4,1.832-.9.3-1.811.575-2.716.862l-2.724.835-2.732.808c-.914.26-1.824.529-2.741.78-1.83.511-3.665,1.006-5.514,1.451,1.788-.649,3.591-1.25,5.4-1.833.9-.3,1.811-.574,2.716-.862l2.725-.834,2.732-.808c.914-.26,1.824-.529,2.741-.78C2339.951,1731.028,2341.786,1730.533,2343.636,1730.087Z" transform="translate(-2321.794 -1723.677)" fill="#1d2238"/>
          <circle id="Ellipse_1485" data-name="Ellipse 1485" cx="2.094" cy="2.094" r="2.094" transform="translate(13.247 4.345) rotate(-41.224)" fill="#1d2238"/>
          <g id="Group_35715" data-name="Group 35715" transform="translate(2.646 4.842)">
            <path id="Path_29634" data-name="Path 29634" d="M2349.394,1751.728a1.41,1.41,0,0,1,.729-.295,1.85,1.85,0,0,1,.747.066,1.763,1.763,0,0,1,.67.374,1.221,1.221,0,0,1,.4.7l-.035.037a2.813,2.813,0,0,0-.269-.2c-.047-.03-.091-.065-.14-.092l-.146-.081a3.407,3.407,0,0,0-.624-.245,4.512,4.512,0,0,0-.656-.149q-.167-.025-.335-.039c-.112-.012-.225-.019-.337-.021Z" transform="translate(-2349.394 -1747.818)" fill="#1d2238"/>
            <path id="Path_29635" data-name="Path 29635" d="M2373.119,1732.006a1.409,1.409,0,0,1,.729-.295,1.85,1.85,0,0,1,.746.066,1.759,1.759,0,0,1,.67.374,1.223,1.223,0,0,1,.4.7l-.035.037a2.742,2.742,0,0,0-.269-.2c-.047-.03-.091-.065-.14-.092l-.146-.081a3.413,3.413,0,0,0-.624-.245,4.552,4.552,0,0,0-.656-.149q-.167-.025-.335-.039c-.112-.012-.225-.019-.336-.021Z" transform="translate(-2370.856 -1729.978)" fill="#1d2238"/>
            <path id="Path_29636" data-name="Path 29636" d="M2395.138,1713.963a1.41,1.41,0,0,1,.729-.295,1.847,1.847,0,0,1,.747.066,1.756,1.756,0,0,1,.67.374,1.222,1.222,0,0,1,.4.7l-.035.037a2.758,2.758,0,0,0-.269-.2c-.047-.03-.091-.065-.14-.092l-.146-.081a3.419,3.419,0,0,0-.623-.245,4.555,4.555,0,0,0-.656-.149q-.167-.025-.335-.039c-.112-.012-.225-.019-.336-.021Z" transform="translate(-2390.775 -1713.655)" fill="#1d2238"/>
          </g>
        </g>
        <path id="Path_29637" data-name="Path 29637" d="M2160.471,475.631h0c-.413.12-1.993.216-2.113-.2h0l2.643-.768h0A.713.713,0,0,1,2160.471,475.631Z" transform="translate(-2126.285 -445.479)" fill="#fff"/>
        <path id="Path_29638" data-name="Path 29638" d="M2227.722,560.029l2.862,17.952-12.925.872s-3.318-22.489,6.855-22.807h0A5.146,5.146,0,0,1,2227.722,560.029Z" transform="translate(-2179.461 -519.096)" fill="#e8505b"/>
        <g id="Group_35718" data-name="Group 35718" transform="translate(0 22.266)">
          <g id="Group_35717" data-name="Group 35717" transform="translate(0.901 16.103)">
            <rect id="Rectangle_19013" data-name="Rectangle 19013" width="10.753" height="78.015" transform="translate(0 3.43) rotate(-18.602)" fill="#d2d6e1"/>
          </g>
          <rect id="Rectangle_19014" data-name="Rectangle 19014" width="10.753" height="6.049" transform="matrix(0.948, -0.319, 0.319, 0.948, 25.787, 93.473)" fill="#fff"/>
          <path id="Path_29639" data-name="Path 29639" d="M2119.635,1413.434h0a5.377,5.377,0,0,1-6.811-3.381l-.145-.429,10.192-3.43.144.429A5.376,5.376,0,0,1,2119.635,1413.434Z" transform="translate(-2084.964 -1310.419)" fill="#d2d6e1"/>
          <path id="Path_29640" data-name="Path 29640" d="M2055.481,1141.893c-.571-1.471-1.115-2.952-1.664-4.43l-.821-2.219-.8-2.224-.4-1.112-.4-1.115-.79-2.229c-.265-.742-.524-1.487-.782-2.232l-.776-2.234-.1-.279.23-.2a2.439,2.439,0,0,0,.786-1.417,2.393,2.393,0,0,0,0-.817c-.016-.067-.027-.134-.046-.2s-.035-.133-.063-.2l-.077-.191-.095-.182a2.384,2.384,0,0,0-4.432,1.492l.035.2.054.2c.015.067.047.129.068.194s.057.125.085.187a2.39,2.39,0,0,0,.493.652,2.432,2.432,0,0,0,1.483.655l.306.023.091.28.733,2.249.366,1.124.36,1.126.719,2.253.359,1.127.352,1.129.7,2.258.688,2.264c.457,1.51.919,3.017,1.354,4.535l-.051.017-6.053-17.924.041.031a2.915,2.915,0,0,1-2.406-1.562c-.035-.076-.073-.15-.1-.227s-.064-.154-.084-.235-.046-.16-.067-.241l-.043-.246a2.9,2.9,0,0,1,5.4-1.818l.114.223c.032.077.062.155.093.232s.05.159.075.238.036.163.054.244a2.916,2.916,0,0,1-.972,2.7l.014-.049,6.017,17.936Z" transform="translate(-2023.478 -1050.513)" fill="#1d2238"/>
          <path id="Path_29641" data-name="Path 29641" d="M1822.958,421.56l-.091-1.117-.074-1.118-.147-2.235-.12-2.236c-.04-.745-.067-1.491-.1-2.236l-.049-1.118-.039-1.118-.076-2.237-.112-4.475-.039-1.565.914,1.27c.871,1.211,1.749,2.418,2.615,3.632l1.292,1.828.645.915.638.92c.423.614.853,1.224,1.272,1.842l1.257,1.853,1.235,1.869.617.935.6.945-.043.032-10.565-14.454.1-.033.325,17.9Z" transform="translate(-1822.11 -402.104)" fill="#1d2238"/>
          <path id="Path_29642" data-name="Path 29642" d="M1838.269,571.669l-9.858,3.318a1.031,1.031,0,0,1-1.306-.648h0a1.031,1.031,0,0,1,.648-1.306l9.858-3.318a1.031,1.031,0,0,1,1.306.648h0A1.031,1.031,0,0,1,1838.269,571.669Z" transform="translate(-1826.58 -553.678)" fill="#1d2238"/>
          <path id="Path_29643" data-name="Path 29643" d="M2099.082,1346.692h0a1.031,1.031,0,0,0-1.306-.648l-9.858,3.318a1.031,1.031,0,0,0-.648,1.306h0a1.03,1.03,0,0,1,.6,1.9,1.03,1.03,0,0,1,.6,1.9,1.031,1.031,0,0,0,1.306.648l9.858-3.318a3.168,3.168,0,0,1,.048-3.207,1.03,1.03,0,0,1-.6-1.9Z" transform="translate(-2061.928 -1255.957)" fill="#1d2238"/>
        </g>
        <path id="Path_29644" data-name="Path 29644" d="M2122.665,487.563l-1.472-.356a.919.919,0,0,0-1.109.678h0a.919.919,0,0,0,.417,1l-.072-.017a.919.919,0,0,0-1.109.678h0a.918.918,0,0,1-.13,1.784.919.919,0,0,0,.678,1.109l1.472.356a.919.919,0,0,0,.764-1.631l.1.025a.919.919,0,1,0,.432-1.787l-.125-.03a.919.919,0,0,0,.828-.7h0A.919.919,0,0,0,2122.665,487.563Z" transform="translate(-2090.829 -456.8)" fill="#eb9481"/>
        <path id="Path_29645" data-name="Path 29645" d="M2127.537,491.181a.921.921,0,0,1,.343.127.967.967,0,0,1,.272.259.98.98,0,0,1,.153.745l0-.022,0,.022a1.019,1.019,0,0,1-.314.554,1.048,1.048,0,0,1-.6.262l.023-.27a1.308,1.308,0,0,1,.408.132,1.047,1.047,0,0,1,.34.3,1.066,1.066,0,0,1,.186.87,1.078,1.078,0,0,1-.981.843c-.039,0-.077,0-.116,0s-.077-.006-.115-.011-.077-.014-.111-.022l-.095-.023.139-.3a1.064,1.064,0,0,1,.4,1.109,1.045,1.045,0,0,1-.845.784.944.944,0,0,1-.3,0,1.118,1.118,0,0,1-.147-.03l-.126-.042c-.168-.056-.336-.112-.5-.171-.336-.116-.67-.235-1-.362.349.067.7.141,1.04.219.173.038.345.079.517.12l.129.031a.9.9,0,0,0,.115.012.818.818,0,0,0,.229-.021.788.788,0,0,0,.39-.222.8.8,0,0,0,.205-.389.774.774,0,0,0-.3-.773l-.67-.486.809.19.1.022.08.015.08.007.079,0a.772.772,0,0,0,.3-.091.745.745,0,0,0,.378-.489.781.781,0,0,0-.114-.614.743.743,0,0,0-.235-.222,1.156,1.156,0,0,0-.326-.122l-.917-.241.94-.029a.793.793,0,0,0,.461-.169.816.816,0,0,0,.286-.417l0,.022,0-.022a.861.861,0,0,0-.065-.645A.916.916,0,0,0,2127.537,491.181Z" transform="translate(-2095.701 -460.418)" fill="#1d2238"/>
        <path id="Path_29646" data-name="Path 29646" d="M2174.116,530.888c.268.054.535.1.8.141s.533.077.8.1.536.048.806.06.54.018.814.031a4.583,4.583,0,0,1-.814.1,5.76,5.76,0,0,1-1.633-.164A3.846,3.846,0,0,1,2174.116,530.888Z" transform="translate(-2140.54 -496.338)" fill="#1d2238"/>
        <path id="Path_29647" data-name="Path 29647" d="M2194.659,1349.551c.305-.121.614-.234.92-.35a1,1,0,0,0,.6-.666.966.966,0,0,0-.181-.859.948.948,0,0,0-.791-.348l-.368.026.312-.2a.949.949,0,0,0,.377-.47.92.92,0,0,0,.011-.6.929.929,0,0,0-.354-.484.943.943,0,0,0-.578-.169l-.378.016.322-.194a.953.953,0,0,0,.368-1.195.974.974,0,0,0-.7-.559,1.038,1.038,0,0,0-.47.019c-.317.093-.635.191-.954.28.309-.122.619-.237.93-.353a1.078,1.078,0,0,1,.512-.053,1.129,1.129,0,0,1,.483.2,1.1,1.1,0,0,1,.449.923,1.125,1.125,0,0,1-.516.9l-.056-.178a1.124,1.124,0,0,1,.656,2.078l-.056-.177a1.122,1.122,0,0,1,.934.435,1.092,1.092,0,0,1-.094,1.44,1.077,1.077,0,0,1-.437.26C2195.289,1349.367,2194.976,1349.462,2194.659,1349.551Z" transform="translate(-2157.442 -1231.329)" fill="#fff"/>
        <path id="Path_29648" data-name="Path 29648" d="M2063.218,688.695q.754-.115,1.51-.216c.5-.067,1.008-.134,1.512-.2s1.008-.125,1.513-.183,1.009-.118,1.514-.171l-.163.177c.016-1.075.1-2.136.217-3.2s.273-2.117.474-3.165.438-2.089.726-3.116c.071-.257.148-.512.223-.768s.159-.509.246-.761c.166-.506.355-1,.551-1.5-.287,1.025-.55,2.053-.78,3.088q-.171.777-.323,1.556c-.1.521-.193,1.041-.28,1.564s-.163,1.046-.238,1.57-.136,1.05-.2,1.576-.113,1.053-.156,1.58-.084,1.057-.1,1.58l-.006.163-.157.014q-.759.066-1.519.122t-1.52.11c-.507.036-1.014.067-1.521.1S2063.726,688.673,2063.218,688.695Z" transform="translate(-2040.22 -627.244)" fill="#1d2238"/>
        <g id="Group_35721" data-name="Group 35721" transform="translate(9.835 44.078)">
          <path id="Path_29649" data-name="Path 29649" d="M1928.113,783.543a.779.779,0,0,0,.816.656c1.955-.116,7.336-.426,7.862-.372l18.867,1.942c12.23,1.063,11.354-4.734,10.842-10.935h0l-29.092,2.812a1.845,1.845,0,0,1-1.926-1.248l-.606-1.8a1.112,1.112,0,0,0-1.362-.728l-.015,0a.523.523,0,0,0-.343.6l.489,2.554-5.563-.992c-.63-.112-1.31.04-1.449.665s.08,1.038.879,1.34l3.782,1.144-4.578-.115c-.641-.016-1.433.124-1.493.893a1.087,1.087,0,0,0,.979,1.26l5.624.878-3.082.553a.78.78,0,0,0-.632.89Z" transform="translate(-1925.219 -760.179)" fill="#eb9481"/>
          <g id="Group_35720" data-name="Group 35720" transform="translate(3.746)">
            <path id="Path_29650" data-name="Path 29650" d="M2222.561,795.147c.677.083,1.343.206,2,.345s1.321.292,1.976.46,1.306.35,1.952.552,1.289.413,1.921.668c-.677-.082-1.343-.206-2.005-.344s-1.32-.292-1.975-.46-1.305-.351-1.951-.552S2223.193,795.4,2222.561,795.147Z" transform="translate(-2197.945 -779.468)" fill="#1d2238"/>
            <g id="Group_35719" data-name="Group 35719" transform="translate(0 16.205)">
              <path id="Path_29651" data-name="Path 29651" d="M1974.467,800.67c.425.034.846.089,1.267.15s.838.131,1.256.205.834.158,1.248.25.828.188,1.238.306c-.425-.034-.846-.088-1.266-.149s-.839-.132-1.256-.206-.834-.158-1.248-.25S1974.877,800.787,1974.467,800.67Z" transform="translate(-1973.515 -800.67)" fill="#1d2238"/>
              <path id="Path_29652" data-name="Path 29652" d="M1964.49,829.2c.281-.023.562-.026.841-.021s.559.018.838.035.557.045.834.08.555.075.83.137c-.282.023-.562.026-.841.022s-.559-.018-.837-.035-.557-.045-.834-.08S1964.766,829.259,1964.49,829.2Z" transform="translate(-1964.49 -826.455)" fill="#1d2238"/>
              <path id="Path_29653" data-name="Path 29653" d="M1968.021,856.449c.278-.006.553.007.827.028s.547.051.819.084.544.077.813.129.54.108.806.185c-.278.006-.553-.007-.827-.028s-.547-.051-.819-.084-.543-.077-.813-.129S1968.288,856.527,1968.021,856.449Z" transform="translate(-1967.684 -851.128)" fill="#1d2238"/>
            </g>
            <path id="Path_29654" data-name="Path 29654" d="M2225.976,645.615q-1.607.238-3.217.433l-1.61.192-1.611.176-.806.088-.806.079-1.613.157-.806.078-.807.069-1.614.138-.525.045-.08-.541c-.05-.338-.1-.661-.134-.991s-.069-.658-.1-.987-.057-.658-.083-.987-.049-.658-.061-.988q-.043-.989-.056-1.979c0-.165-.006-.33,0-.5l.007-.5c.007-.33.015-.66.027-.99s.026-.66.043-.989.048-.659.078-.988.062-.658.094-.986.082-.656.131-.982a25.151,25.151,0,0,1,.837-3.867v0a.034.034,0,0,1,.066.016q-.337,1.931-.484,3.889-.078.977-.114,1.957c-.027.653-.04,1.306-.043,1.96-.008,1.307.028,2.614.1,3.919s.163,2.61.318,3.906l-.062-.051,12.927-.848a.034.034,0,0,1,.007.068Z" transform="translate(-2188.432 -630.774)" fill="#1d2238"/>
          </g>
        </g>
        <g id="Group_35722" data-name="Group 35722" transform="translate(45.755)">
          <ellipse id="Ellipse_1486" data-name="Ellipse 1486" cx="14.93" cy="13.402" rx="14.93" ry="13.402" transform="translate(7.355)" fill="#f1f2f5"/>
          <circle id="Ellipse_1487" data-name="Ellipse 1487" cx="3.366" cy="3.366" r="3.366" transform="translate(3.713 21.439)" fill="#f1f2f5"/>
          <circle id="Ellipse_1488" data-name="Ellipse 1488" cx="1.683" cy="1.683" r="1.683" transform="translate(0 29.084) rotate(-45)" fill="#f1f2f5"/>
        </g>
      </g>
      <path id="Path_29655" data-name="Path 29655" d="M438.781,1823.716H189.257a.238.238,0,1,1,0-.477H438.781a.238.238,0,1,1,0,.477Z" transform="translate(-189.019 -1665.418)" fill="#1d2238"/>
      <g id="Group_35724" data-name="Group 35724" transform="translate(43.785 39.296)">
        <rect id="Rectangle_19015" data-name="Rectangle 19015" width="85.763" height="8.196" fill="#265192"/>
        <circle id="Ellipse_1489" data-name="Ellipse 1489" cx="1.173" cy="1.173" r="1.173" transform="translate(4.334 3.427) rotate(-20.26)" fill="#f0c36a"/>
        <circle id="Ellipse_1490" data-name="Ellipse 1490" cx="1.173" cy="1.173" r="1.173" transform="translate(9.152 5.067) rotate(-80.747)" fill="#d2d6e1"/>
        <circle id="Ellipse_1491" data-name="Ellipse 1491" cx="1.173" cy="1.173" r="1.173" transform="translate(13.658 5.043) rotate(-80.747)" fill="#d2d6e1"/>
      </g>
    </g>
  </g>
</svg>
