<svg xmlns="http://www.w3.org/2000/svg" width="282.427" height="133.002" viewBox="0 0 282.427 133.002">
  <g id="Group_34474" data-name="Group 34474" transform="translate(-841.619 -329.826)">
    <g id="Group_34473" data-name="Group 34473" transform="translate(131 -79.568)">
      <path id="Path_22954" data-name="Path 22954" d="M776.179,355.385c-.355.244-.7.491-1.05.747a91.637,91.637,0,0,0-5.03,30.107q0,1.778.077,3.546a88.978,88.978,0,0,0,5,25.925q.233.659.475,1.312c.116.312.233.628.359.937l.374.462c.009.007.016.018.025.025.05.062.1.124.145.184.215.262.432.523.647.785l-.17.019-.426.047,0,0c.143-.01.289-.021.433-.035.052,0,.11,0,.163-.011l.146-.011c6.147-.447,12.431-1.04,17.918-3.812,5.742-2.9,10.456-8.83,9.911-15.239a11.536,11.536,0,0,0-.494-2.471c-.106-.335-.229-.664-.359-.992a12.146,12.146,0,0,0-20.99-2.863c1.38-6.679,8.439-10.376,14.841-12.719s13.624-4.817,16.674-10.917a13.123,13.123,0,0,0,.2-10.76c-.042-.1-.085-.212-.132-.318a17.723,17.723,0,0,0-8.978-9.3c-7.6-3.34-16.564-1.632-24.026,2A43.937,43.937,0,0,0,776.179,355.385Z" transform="translate(176.934 95.048)" fill="#84c4e2"/>
      <path id="Path_22955" data-name="Path 22955" d="M818.725,566.247a27.347,27.347,0,0,0-15.408,7.564,27.985,27.985,0,0,0-7.382,12.832c-.074.278-.14.556-.2.834-.16-.274-.317-.555-.471-.833-.1-.178-.2-.359-.3-.539.116.312.233.628.359.937l.374.462c.009.007.016.018.025.025.05.062.1.124.145.184.215.262.432.523.647.785l-.17.019-.426.047,0,0c.143-.01.289-.021.433-.035.052,0,.11,0,.163-.011.014-.084.032-.167.051-.25A26.423,26.423,0,0,1,824,566.988c-.106-.335-.229-.664-.359-.992A28.267,28.267,0,0,0,818.725,566.247Z" transform="translate(157.624 -74.035)" fill="#fff"/>
      <path id="Path_22956" data-name="Path 22956" d="M778.9,411.852a30.087,30.087,0,0,0-5.874,6.478,24.958,24.958,0,0,0-2.17,4.1c-.282.664-.536,1.347-.761,2.035q0,1.778.077,3.546a25.781,25.781,0,0,1,.673-2.669c.14-.481.3-.954.469-1.422a28.178,28.178,0,0,1,10.036-12.772,65.294,65.294,0,0,1,15.683-8.356A74.059,74.059,0,0,1,814.6,398.45a.531.531,0,0,0,.463-.57.457.457,0,0,0-.132-.318.379.379,0,0,0-.33-.089c-.742.089-1.481.182-2.219.294a74.937,74.937,0,0,0-17.884,4.994A60.292,60.292,0,0,0,778.9,411.852Z" transform="translate(176.934 56.821)" fill="#fff"/>
      <path id="Path_22957" data-name="Path 22957" d="M487.474,789.789H224.386a.394.394,0,1,1,0-.789H487.474a.394.394,0,1,1,0,.789Z" transform="translate(486.627 -247.393)" fill="#3f3d56"/>
    </g>
    <path id="Path_22958" data-name="Path 22958" d="M429,389.982H231.428a18.439,18.439,0,0,1-18.418-18.418v-96a18.439,18.439,0,0,1,18.418-18.418H429a18.439,18.439,0,0,1,18.418,18.418v96A18.439,18.439,0,0,1,429,389.982Zm-197.573-1.116C438.552,388.855,221.877,388.855,231.428,388.866Z" transform="translate(639.99 72.675)" fill="#fff"/>
    <g id="Group_34471" data-name="Group 34471" transform="translate(853 313.133)">
      <path id="Path_22923" data-name="Path 22923" d="M447.949,462.151v.508a17.589,17.589,0,0,1-17.589,17.586H231.8A17.588,17.588,0,0,1,214.21,462.66v-.51Z" transform="translate(-213.541 -331.044)" fill="#f2f2f2"/>
      <path id="Path_22924" data-name="Path 22924" d="M265.28,297.58c-14.349,3.544-27.23-7.5-29.48-17.737l1-.179C248.894,276.991,262.394,285.636,265.28,297.58Z" transform="translate(-223.081 -250.191)" fill="#265192"/>
      <path id="Path_22944" data-name="Path 22944" d="M527.259,413.174a10.105,10.105,0,0,1-7.577-2.834c-4.12-4.25-3.862-12.442-3.654-19.025.06-1.915.117-3.724.06-5.239v-.023a11.238,11.238,0,0,1,11.177-11.183h26.575a10.1,10.1,0,0,1,7.57,2.83c4.12,4.247,3.864,12.437,3.659,19.018-.06,1.919-.116,3.732-.058,5.25a11.245,11.245,0,0,1-11.183,11.206ZM517.2,386.046c.058,1.551,0,3.375-.06,5.305-.2,6.372-.451,14.3,3.34,18.213a8.922,8.922,0,0,0,6.776,2.494h26.567a10.122,10.122,0,0,0,10.068-10.07c-.06-1.534,0-3.365.058-5.3.2-6.37.445-14.3-3.345-18.206a8.916,8.916,0,0,0-6.768-2.491H527.265A10.119,10.119,0,0,0,517.2,386.046Z" transform="translate(-346.866 -292.476)" fill="#3f3d56"/>
      <path id="Path_22945" data-name="Path 22945" d="M258.582,298.013a24.9,24.9,0,0,1-13.157-3.854c-5.77-3.586-10.127-9.328-11.37-14.986l-.125-.567,1.559-.279c12.275-2.709,26.158,6.021,29.132,18.326l.13.54-.539.133A23.43,23.43,0,0,1,258.582,298.013ZM235.28,279.5c1.339,5.19,5.4,10.4,10.734,13.712a23.267,23.267,0,0,0,17.383,3.16c-3.112-11.465-16.142-19.51-27.678-16.952Z" transform="translate(-222.255 -249.597)" fill="#3f3d56"/>
      <path id="Path_22946" data-name="Path 22946" d="M242.559,411.325a9.264,9.264,0,0,1-8.36-4.615,11.588,11.588,0,0,1,0-11.362,9.3,9.3,0,0,1,8.558-4.619h35.409a9.313,9.313,0,0,1,8.549,4.625,11.588,11.588,0,0,1,0,11.36,9.337,9.337,0,0,1-8.556,4.609h-35.6Zm.021-19.481a8.2,8.2,0,0,0-7.42,4.067,10.439,10.439,0,0,0,0,10.236,8.212,8.212,0,0,0,7.573,4.06h35.426a8.225,8.225,0,0,0,7.584-4.056,10.439,10.439,0,0,0,0-10.235,8.247,8.247,0,0,0-7.577-4.071H242.58Z" transform="translate(-221.715 -299.484)" fill="#3f3d56"/>
      <path id="Path_22947" data-name="Path 22947" d="M541.463,394.232H530.3a2.791,2.791,0,1,1,0-5.581h11.162a2.791,2.791,0,0,1,0,5.581Z" transform="translate(-351.983 -298.566)" fill="#f36a20"/>
      <path id="Path_22948" data-name="Path 22948" d="M541.463,410.232H530.3a2.791,2.791,0,1,1,0-5.581h11.162a2.791,2.791,0,0,1,0,5.581Z" transform="translate(-351.983 -305.636)" fill="#f36a20"/>
      <path id="Path_22949" data-name="Path 22949" d="M541.463,426.232H530.3a2.791,2.791,0,1,1,0-5.581h11.162a2.791,2.791,0,0,1,0,5.581Z" transform="translate(-351.983 -312.706)" fill="#f36a20"/>
      <path id="Path_22950" data-name="Path 22950" d="M576.463,394.232H565.3a2.791,2.791,0,1,1,0-5.581h11.162a2.791,2.791,0,1,1,0,5.581Z" transform="translate(-367.449 -298.566)" fill="#f36a20"/>
      <path id="Path_22951" data-name="Path 22951" d="M576.463,410.232H565.3a2.791,2.791,0,1,1,0-5.581h11.162a2.791,2.791,0,0,1,0,5.581Z" transform="translate(-367.449 -305.636)" fill="#f36a20"/>
      <path id="Path_22952" data-name="Path 22952" d="M576.463,426.232H565.3a2.791,2.791,0,1,1,0-5.581h11.162a2.791,2.791,0,0,1,0,5.581Z" transform="translate(-367.449 -312.706)" fill="#f36a20"/>
      <rect id="Rectangle_18717" data-name="Rectangle 18717" width="233.738" height="1.116" transform="translate(0.67 56.007)" fill="#3f3d56"/>
      <path id="Path_22953" data-name="Path 22953" d="M429,389.982H231.428a18.439,18.439,0,0,1-18.418-18.418v-96a18.439,18.439,0,0,1,18.418-18.418H429a18.439,18.439,0,0,1,18.418,18.418v96A18.439,18.439,0,0,1,429,389.982ZM231.428,258.267a17.321,17.321,0,0,0-17.3,17.3v96a17.321,17.321,0,0,0,17.3,17.3H429a17.321,17.321,0,0,0,17.3-17.3v-96a17.321,17.321,0,0,0-17.3-17.3Z" transform="translate(-213.01 -240.458)" fill="#3f3d56"/>
    </g>
  </g>
</svg>
