<svg xmlns="http://www.w3.org/2000/svg" xmlns:xlink="http://www.w3.org/1999/xlink" width="207.397" height="143.036" viewBox="0 0 207.397 143.036">
  <defs>
    <clipPath id="clip-path">
      <rect id="Rectangle_18966" data-name="Rectangle 18966" width="207.397" height="143.036" fill="none"/>
    </clipPath>
    <clipPath id="clip-path-6">
      <rect id="Rectangle_18961" data-name="Rectangle 18961" width="17.646" height="44.576" fill="none"/>
    </clipPath>
    <clipPath id="clip-path-7">
      <rect id="Rectangle_18962" data-name="Rectangle 18962" width="17.516" height="44.576" fill="none"/>
    </clipPath>
    <clipPath id="clip-path-8">
      <rect id="Rectangle_18963" data-name="Rectangle 18963" width="11.055" height="15.623" fill="none"/>
    </clipPath>
  </defs>
  <g id="Group_35555" data-name="Group 35555" transform="translate(-981.035 -342.717)">
    <g id="Group_34482" data-name="Group 34482" transform="translate(981.035 342.717)">
      <g id="Group_35552" data-name="Group 35552" clip-path="url(#clip-path)">
        <g id="Group_35534" data-name="Group 35534">
          <g id="Group_35533" data-name="Group 35533" clip-path="url(#clip-path)">
            <path id="Path_29312" data-name="Path 29312" d="M32.984,236.232c6.629-5.424,7.487-14.546,6.548-22.605-.157-1.346-.123-2.781-.87-3.91a2.8,2.8,0,0,0-3.508-1.145c-.976.555-1.324,1.757-1.813,2.768a7.988,7.988,0,0,1-2.958,3.286,3.09,3.09,0,0,1-2.786.481c-1.232-.545-1.5-2.141-1.6-3.484l-.566-7.506a12.387,12.387,0,0,0-.736-3.952,4.194,4.194,0,0,0-2.88-2.6,2.574,2.574,0,0,0-3.028,1.953,12.3,12.3,0,0,0,.1,1.674,1.418,1.418,0,0,1-.729,1.4,1.661,1.661,0,0,1-1.543-.493,17.879,17.879,0,0,1-3.641-4.568,24.741,24.741,0,0,0-3.435-4.74,7.4,7.4,0,0,0-5.207-2.347,4.421,4.421,0,0,0-4.271,3.336c-.339,1.932.937,3.759,2.278,5.19a30.251,30.251,0,0,0,6.8,5.424,2.484,2.484,0,0,1,1.149,1.034c.368.87-.418,1.83-1.288,2.2a16.038,16.038,0,0,1-3.144.614,3.076,3.076,0,0,0-2.481,1.788c-.444,1.418.836,2.759,2.056,3.607a26.165,26.165,0,0,0,8.053,3.749,8.858,8.858,0,0,1,2.971,1.136,2.472,2.472,0,0,1,1.039,2.778,2.59,2.59,0,0,1-2.7,1.286,18.285,18.285,0,0,1-3.075-.879c-1.925-.542-4.327-.216-5.394,1.477a4.214,4.214,0,0,0-.151,3.792A9.8,9.8,0,0,0,8.5,230.123,26.211,26.211,0,0,0,20.3,236.945c4.456,1.126,8.5,1.2,12.684-.713" transform="translate(0 -99.207)" fill="#e1a070"/>
            <path id="Path_29313" data-name="Path 29313" d="M35.6,243.671a58.489,58.489,0,0,0-3.13-10.871,119.827,119.827,0,0,0-5.9-12.543l-1.717-3.209c-.566-1.053-1.126-2.1-1.739-3.082a60.118,60.118,0,0,0-3.848-5.471c-1.309-1.681-2.614-3.23-3.845-4.67s-2.41-2.756-3.534-3.912a48.321,48.321,0,0,0-5.707-5.062c-.719-.544-1.29-.948-1.681-1.217l-.446-.3c-.1-.068-.156-.1-.156-.1s.046.042.144.115l.434.32c.382.28.946.694,1.656,1.247a50.492,50.492,0,0,1,5.652,5.1c1.114,1.16,2.282,2.481,3.509,3.922s2.523,2.994,3.825,4.675a60.519,60.519,0,0,1,3.826,5.459c.608.983,1.164,2.018,1.73,3.074l1.715,3.208a122.22,122.22,0,0,1,5.9,12.516A59.372,59.372,0,0,1,35.455,243.7" transform="translate(-2.032 -100.66)" fill="#e0e0e0"/>
            <path id="Path_29314" data-name="Path 29314" d="M43.89,220.245a3.317,3.317,0,0,0,.077-.584c.038-.377.077-.924.115-1.6.079-1.352.126-3.222.173-5.285s.127-3.929.235-5.276c.052-.674.1-1.219.14-1.595a3.215,3.215,0,0,0,.037-.587,3.335,3.335,0,0,0-.115.577c-.064.374-.134.918-.2,1.592-.145,1.347-.248,3.218-.295,5.283-.044,2.045-.084,3.9-.114,5.284-.021.647-.038,1.185-.051,1.6a3.164,3.164,0,0,0,0,.589" transform="translate(-22.857 -106.956)" fill="#e0e0e0"/>
            <path id="Path_29315" data-name="Path 29315" d="M6.867,232.636a.631.631,0,0,0,.182.014H7.57c.452,0,1.106,0,1.914.021,1.614.034,3.845.162,6.3.412s4.662.581,6.253.865c.8.137,1.437.265,1.881.352l.512.1a.63.63,0,0,0,.182.021.628.628,0,0,0-.172-.061l-.5-.134c-.439-.111-1.077-.261-1.872-.416-1.587-.321-3.8-.671-6.259-.926s-4.7-.356-6.316-.354c-.81,0-1.465.019-1.917.044l-.52.036a.607.607,0,0,0-.181.027" transform="translate(-3.577 -121.129)" fill="#e0e0e0"/>
            <path id="Path_29316" data-name="Path 29316" d="M63.067,250.433a1.07,1.07,0,0,0,.1-.222l.244-.65c.21-.565.493-1.39.832-2.414.677-2.047,1.526-4.9,2.423-8.066s1.723-6.022,2.365-8.078c.319-1.008.58-1.833.769-2.432l.208-.662a1.115,1.115,0,0,0,.059-.235,1.084,1.084,0,0,0-.1.222l-.244.65c-.21.565-.493,1.39-.831,2.414-.678,2.047-1.527,4.9-2.424,8.067s-1.723,6.021-2.364,8.077c-.32,1.008-.58,1.833-.77,2.432l-.207.662a1.07,1.07,0,0,0-.059.235" transform="translate(-32.852 -118.601)" fill="#e0e0e0"/>
            <path id="Path_29317" data-name="Path 29317" d="M13.324,263.753a1.182,1.182,0,0,0,.239.07l.694.163,2.554.583c2.155.495,5.125,1.215,8.4,2.019s6.257,1.5,8.422,1.962c1.083.23,1.96.408,2.569.52l.7.126a1.131,1.131,0,0,0,.247.03,1.181,1.181,0,0,0-.24-.07l-.693-.163-2.554-.583c-2.156-.495-5.125-1.215-8.4-2.019s-6.256-1.5-8.421-1.962c-1.083-.23-1.96-.408-2.569-.52l-.7-.126a1.134,1.134,0,0,0-.248-.03" transform="translate(-6.941 -137.394)" fill="#e0e0e0"/>
            <path id="Path_29320" data-name="Path 29320" d="M368.87,194.434s-2.244-2.224-6.627,3.331a81.9,81.9,0,0,0-6.287,8.883s-1.091,1.129-1.812.105-1.461-3.669-3.06-3.538c-1.658.136-2.523,1.784-2.737,4.416s-.893,8.381-.956,8.9-.5,1.193-1.1.574-3.73-5.9-6.145-4.262-1.8,9.064-1.753,9.878-.166,1.113-.571,1.231-1.289-1.754-2.24-3.219-2.31-3-3.624-1.936-2.7,6.266.608,15.833l1.825,4.333,4.675.664c10.092.813,14.785-1.836,15.482-3.374s-1.126-2.47-2.782-3.024-3.69-.941-3.677-1.363.249-.707,1.049-.861,8.147-1.422,9.125-4.169-4.914-4.454-5.664-4.883-.2-1.021.281-1.21,5.884-2.288,8.379-3.153,3.873-2.116,3.59-3.755c-.273-1.58-3.019-1.635-4.191-2.077s-.351-1.781-.351-1.781a81.863,81.863,0,0,0,7.026-8.31c4.282-5.633,1.49-7.277,1.49-7.277" transform="translate(-172.172 -101.056)" fill="#84c4e2"/>
            <path id="Path_29321" data-name="Path 29321" d="M365.433,205.282a.638.638,0,0,1-.076.122l-.245.342-.959,1.3c-.835,1.126-2.06,2.745-3.581,4.739-3.042,3.988-7.3,9.456-12.023,15.474l-12.081,15.43-3.643,4.69-1,1.271-.264.327a.6.6,0,0,1-.1.106.628.628,0,0,1,.077-.122l.244-.342.959-1.3c.836-1.126,2.06-2.745,3.581-4.739,3.042-3.988,7.3-9.456,12.025-15.477l12.08-15.427,3.643-4.69,1-1.271.264-.327a.649.649,0,0,1,.1-.106" transform="translate(-172.669 -106.936)" fill="#e0e0e0"/>
            <path id="Path_29322" data-name="Path 29322" d="M375.276,221.051a5.93,5.93,0,0,1,.177,1.255c.071.779.135,1.857.178,3.047.031,1.145.059,2.181.083,3.048a7.829,7.829,0,0,1,0,1.265,5.36,5.36,0,0,1-.175-1.256c-.063-.779-.114-1.858-.156-3.048-.039-1.144-.075-2.179-.1-3.045a6.945,6.945,0,0,1,0-1.266" transform="translate(-195.479 -115.151)" fill="#e0e0e0"/>
            <path id="Path_29323" data-name="Path 29323" d="M377.063,238.461c-.006-.068,2.209-.309,4.946-.538a49.47,49.47,0,0,1,4.968-.289c.005.069-2.209.309-4.947.538a49.726,49.726,0,0,1-4.967.289" transform="translate(-196.421 -123.78)" fill="#e0e0e0"/>
            <path id="Path_29324" data-name="Path 29324" d="M360.469,258.66a7.272,7.272,0,0,1,1.276.2c.782.148,1.861.355,3.059.545s2.288.337,3.077.439a7.374,7.374,0,0,1,1.275.205,6.053,6.053,0,0,1-1.293-.03c-.8-.057-1.895-.174-3.1-.368s-2.283-.427-3.058-.619a6.1,6.1,0,0,1-1.238-.377" transform="translate(-187.777 -134.738)" fill="#e0e0e0"/>
            <path id="Path_29325" data-name="Path 29325" d="M355.221,242.439a5.682,5.682,0,0,1,.465,1.1c.256.69.595,1.65.954,2.714s.671,2.034.885,2.738a5.706,5.706,0,0,1,.3,1.157,5.706,5.706,0,0,1-.464-1.1c-.257-.691-.6-1.65-.954-2.715s-.671-2.033-.884-2.738a5.683,5.683,0,0,1-.3-1.157" transform="translate(-185.04 -126.292)" fill="#e0e0e0"/>
            <path id="Path_29326" data-name="Path 29326" d="M338.411,257.6a9.271,9.271,0,0,1,.585,1.414c.331.884.773,2.111,1.246,3.471s.889,2.6,1.177,3.5a9.3,9.3,0,0,1,.419,1.472,9.221,9.221,0,0,1-.585-1.414c-.332-.884-.773-2.111-1.247-3.471s-.888-2.6-1.177-3.495a9.269,9.269,0,0,1-.419-1.472" transform="translate(-176.284 -134.192)" fill="#e0e0e0"/>
            <path id="Path_29327" data-name="Path 29327" d="M345.536,277.622a11.738,11.738,0,0,1,1.624.215c1,.155,2.376.37,3.9.571s2.914.357,3.918.467a11.716,11.716,0,0,1,1.624.216,9.659,9.659,0,0,1-1.639-.041c-1.01-.064-2.4-.19-3.936-.395s-2.91-.445-3.9-.644a9.772,9.772,0,0,1-1.593-.389" transform="translate(-179.998 -144.616)" fill="#e0e0e0"/>
            <rect id="Rectangle_18954" data-name="Rectangle 18954" width="37.17" height="27.163" transform="translate(174.43 83.419) rotate(-88.252)" fill="#eaeaea"/>
            <rect id="Rectangle_18955" data-name="Rectangle 18955" width="37.17" height="27.163" transform="translate(169.428 88.355) rotate(-88.252)" fill="#fff"/>
            <path id="Path_29328" data-name="Path 29328" d="M380.693,144.718s0-.064,0-.183.005-.3.01-.525c.011-.469.027-1.148.048-2.03.047-1.777.116-4.361.2-7.631.186-6.539.45-15.812.762-26.787l.11.116-27.147-.817h0l.128-.121c-.432,13.877-.832,26.725-1.157,37.152l-.1-.1,19.716.655,5.484.194,1.445.056c.328.013.5.026.5.026s-.16,0-.481,0l-1.426-.032-5.463-.14-19.783-.551-.1,0,0-.1c.312-10.427.7-23.275,1.111-37.153l0-.125.125,0h0l27.146.84.113,0,0,.113c-.359,11-.663,20.3-.876,26.857-.113,3.258-.2,5.833-.263,7.6-.033.871-.057,1.544-.075,2.007-.01.22-.017.389-.022.512s-.012.169-.012.169" transform="translate(-184.114 -55.535)" fill="#e0e0e0"/>
            <path id="Path_29329" data-name="Path 29329" d="M376.217,124.349c0,.069-2.957.035-6.6-.077s-6.6-.257-6.594-.326,2.957-.034,6.6.077,6.595.257,6.593.326" transform="translate(-189.107 -64.548)" fill="#e0e0e0"/>
            <path id="Path_29330" data-name="Path 29330" d="M383.147,131.318c0,.069-4.555-.014-10.168-.185s-10.164-.367-10.162-.435,4.554.014,10.169.186,10.162.366,10.16.435" transform="translate(-189 -68.071)" fill="#e0e0e0"/>
            <path id="Path_29331" data-name="Path 29331" d="M382.933,138.348c0,.069-4.555-.014-10.168-.185s-10.164-.367-10.162-.435,4.554.014,10.169.186,10.163.366,10.161.435" transform="translate(-188.889 -71.733)" fill="#e0e0e0"/>
            <path id="Path_29332" data-name="Path 29332" d="M382.718,145.379c0,.069-4.555-.014-10.168-.185s-10.164-.366-10.162-.435,4.554.014,10.169.186,10.163.366,10.161.435" transform="translate(-188.777 -75.395)" fill="#e0e0e0"/>
            <path id="Path_29333" data-name="Path 29333" d="M382.5,152.409c0,.069-4.555-.014-10.168-.185s-10.164-.367-10.162-.435,4.554.014,10.169.186,10.163.366,10.161.435" transform="translate(-188.665 -79.057)" fill="#e0e0e0"/>
            <path id="Path_29334" data-name="Path 29334" d="M382.289,159.439c0,.069-4.555-.014-10.168-.185s-10.163-.367-10.161-.435,4.554.014,10.169.186,10.163.366,10.161.435" transform="translate(-188.553 -82.72)" fill="#e0e0e0"/>
            <path id="Path_29335" data-name="Path 29335" d="M382.074,166.469c0,.069-4.555-.014-10.168-.185s-10.164-.367-10.162-.435,4.554.014,10.169.186,10.162.366,10.16.435" transform="translate(-188.441 -86.382)" fill="#e0e0e0"/>
            <path id="Path_29336" data-name="Path 29336" d="M372.457,173.193c0,.069-2.45.05-5.467-.042s-5.462-.223-5.46-.291,2.45-.05,5.468.042,5.461.222,5.46.291" transform="translate(-188.33 -90.025)" fill="#e0e0e0"/>
          </g>
        </g>
        <g id="Group_35536" data-name="Group 35536">
          <g id="Group_35535" data-name="Group 35535" clip-path="url(#clip-path)">
            <path id="Path_29342" data-name="Path 29342" d="M210.355,296.838c0,.073-45.822.132-102.333.132-56.531,0-102.343-.059-102.343-.132s45.812-.132,102.343-.132c56.511,0,102.333.059,102.333.132" transform="translate(-2.958 -154.561)" fill="#263238"/>
          </g>
        </g>
        <g id="Group_35538" data-name="Group 35538">
          <g id="Group_35537" data-name="Group 35537" clip-path="url(#clip-path)">
            <path id="Path_29343" data-name="Path 29343" d="M95.692,193.425,81.226,178.9,88.5,165.538c7.273-9.31,22.668-8.71,22.668-8.71a88.254,88.254,0,0,1,22.705,1.37c12.228,2.38,11.244,10.473,11.244,10.473l1.638,29.977,1.756,24.408-45.1.909Z" transform="translate(-42.313 -81.585)" fill="#e8505b"/>
            <path id="Path_29344" data-name="Path 29344" d="M103.739,239.585l-40.4.495A13.132,13.132,0,0,1,51.31,221.33L68.583,189.3l15.734,10.636L73.584,222.207l32.7.583Z" transform="translate(-26.062 -98.609)" fill="#e8505b"/>
            <path id="Path_29345" data-name="Path 29345" d="M211.574,171.623l32.42,50.053-18.913,1.237s-11.3-17.8-11.04-17.431c.462.666-2.466-33.859-2.466-33.859" transform="translate(-110.214 -89.403)" fill="#e8505b"/>
            <path id="Path_29346" data-name="Path 29346" d="M114.1,192.488a1.052,1.052,0,0,1,.045-.257l.172-.725c.15-.63.367-1.54.6-2.673s.469-2.488.634-4a21.117,21.117,0,0,0,.017-4.936,12.993,12.993,0,0,0-1.673-4.608,18.554,18.554,0,0,0-2.406-3.24,22.873,22.873,0,0,0-1.963-1.9,9.977,9.977,0,0,1-.757-.661,1.015,1.015,0,0,1,.22.139c.137.1.348.24.6.447a19.088,19.088,0,0,1,2.03,1.853,17.885,17.885,0,0,1,2.476,3.243,12.968,12.968,0,0,1,1.722,4.689,20.64,20.64,0,0,1-.036,5,40.359,40.359,0,0,1-.69,4.016c-.252,1.132-.5,2.038-.675,2.661-.09.311-.163.552-.218.714a1.029,1.029,0,0,1-.093.244" transform="translate(-56.659 -88.289)" fill="#263238"/>
            <path id="Path_29347" data-name="Path 29347" d="M107.756,221.1a4.6,4.6,0,0,1-.278.724c-.193.46-.483,1.12-.849,1.933-.732,1.626-1.774,3.858-2.972,6.3s-2.327,4.633-3.165,6.206c-.419.787-.764,1.42-1.009,1.855a4.612,4.612,0,0,1-.4.663,4.588,4.588,0,0,1,.317-.708l.938-1.89,3.1-6.235,3.036-6.265.921-1.9a4.62,4.62,0,0,1,.366-.684" transform="translate(-51.612 -115.178)" fill="#263238"/>
            <path id="Path_29348" data-name="Path 29348" d="M119.321,275.14a.283.283,0,0,1,0-.084c.005-.067.012-.147.02-.246.023-.232.055-.55.1-.955.093-.851.227-2.065.4-3.594.358-3.1.862-7.459,1.455-12.6l.113.127-11.933.011-20.878-.037-6.327-.039-1.72-.023-.447-.012a.694.694,0,0,1-.152-.013.675.675,0,0,1,.152-.012l.447-.012,1.72-.023,6.327-.04,20.878-.036,11.933.011h.129l-.015.128c-.63,5.135-1.166,9.494-1.545,12.588-.2,1.525-.351,2.737-.46,3.586-.056.4-.1.72-.131.951-.015.1-.028.178-.038.244a.278.278,0,0,1-.019.082" transform="translate(-41.644 -134.164)" fill="#263238"/>
            <path id="Path_29349" data-name="Path 29349" d="M92.569,252.6a11.526,11.526,0,0,1-.806-1.009,15.757,15.757,0,0,0-4.7-3.972A11.412,11.412,0,0,1,85.93,247a4.733,4.733,0,0,1,1.212.47,12.944,12.944,0,0,1,4.762,4.021,4.723,4.723,0,0,1,.665,1.116" transform="translate(-44.763 -128.665)" fill="#263238"/>
            <path id="Path_29350" data-name="Path 29350" d="M216.663,220.646a2.657,2.657,0,0,1-.064-.414q-.05-.442-.135-1.192c-.11-1.036-.259-2.536-.419-4.392-.328-3.711-.706-8.845-1.043-14.519s-.57-10.818-.7-14.541c-.069-1.861-.113-3.368-.137-4.409q-.012-.755-.02-1.2a2.734,2.734,0,0,1,.01-.419,2.574,2.574,0,0,1,.04.417q.025.444.067,1.2c.052,1.064.126,2.564.216,4.406.18,3.72.442,8.86.778,14.534s.687,10.806.97,14.519c.142,1.839.258,3.335.34,4.4q.056.753.089,1.2a2.653,2.653,0,0,1,.014.419" transform="translate(-111.551 -93.537)" fill="#263238"/>
            <path id="Path_29351" data-name="Path 29351" d="M138.487,194.351a4.029,4.029,0,0,1,.051-.654c.056-.457.129-1.065.219-1.812l.832-6.256.186.114-3.1,2.17-3.154,2.194-.227.158.042-.272c.38-2.487.709-4.634.949-6.2.122-.738.221-1.338.3-1.788a4,4,0,0,1,.133-.638,4.082,4.082,0,0,1-.055.65l-.228,1.8c-.217,1.57-.515,3.721-.86,6.214l-.185-.114,3.146-2.2,3.106-2.161.226-.157-.04.271c-.368,2.5-.687,4.665-.92,6.244-.118.744-.215,1.348-.287,1.8a4.043,4.043,0,0,1-.13.643" transform="translate(-69.437 -94.477)" fill="#e0e0e0"/>
            <path id="Path_29352" data-name="Path 29352" d="M168.282,205.148a4.08,4.08,0,0,1-.47-.458l-1.254-1.327-4.28-4.639.206-.07c-.1,1.175-.2,2.449-.312,3.771-.115,1.343-.227,2.636-.329,3.827l-.024.275-.183-.206-4.162-4.693-1.187-1.37a4.088,4.088,0,0,1-.406-.51,3.892,3.892,0,0,1,.465.457l1.238,1.324,4.228,4.633-.206.069c.1-1.191.206-2.484.317-3.828.114-1.322.223-2.6.324-3.77l.024-.274.183.2,4.214,4.7,1.2,1.373a4.045,4.045,0,0,1,.412.512" transform="translate(-81.203 -103.331)" fill="#e0e0e0"/>
            <path id="Path_29353" data-name="Path 29353" d="M195.2,211.188a4.061,4.061,0,0,1-.325.57l-.97,1.546-3.417,5.306-.119-.182,3.729-.643,3.787-.641.273-.046-.154.229-3.5,5.206-1.029,1.492a4.026,4.026,0,0,1-.392.521,4.03,4.03,0,0,1,.326-.564l.972-1.53,3.425-5.255.119.183-3.785.653-3.731.631-.271.046.152-.228,3.492-5.257,1.028-1.509a4.047,4.047,0,0,1,.392-.527" transform="translate(-99.049 -110.013)" fill="#e0e0e0"/>
            <path id="Path_29354" data-name="Path 29354" d="M170.016,230.565a4.042,4.042,0,0,1-.325.571l-.97,1.546-3.417,5.306-.119-.182,3.729-.643,3.787-.641.273-.046-.154.229-3.5,5.206-1.029,1.492a3.984,3.984,0,0,1-.392.521,4.033,4.033,0,0,1,.326-.564l.972-1.53,3.425-5.255.119.183-3.785.653-3.731.631-.271.046.152-.228L168.6,232.6l1.028-1.509a4.048,4.048,0,0,1,.392-.527" transform="translate(-85.928 -120.107)" fill="#e0e0e0"/>
            <path id="Path_29355" data-name="Path 29355" d="M224.437,210.914a4.057,4.057,0,0,1-.325.57l-.97,1.546-3.417,5.306-.12-.182,3.729-.643,3.787-.641.273-.046-.154.229-3.5,5.206-1.029,1.492a4.012,4.012,0,0,1-.392.521,4.033,4.033,0,0,1,.326-.564l.972-1.53,3.425-5.255.119.183-3.785.653-3.731.631-.271.046.152-.228,3.492-5.257,1.028-1.509a4.05,4.05,0,0,1,.392-.527" transform="translate(-114.277 -109.87)" fill="#e0e0e0"/>
            <path id="Path_29356" data-name="Path 29356" d="M96.989,194.907a4.058,4.058,0,0,1-.325.57l-.97,1.546-3.417,5.306-.119-.182,3.729-.643,3.787-.641.273-.046-.154.229-3.5,5.206-1.029,1.492a4.025,4.025,0,0,1-.392.521,4.033,4.033,0,0,1,.326-.564l.972-1.53,3.425-5.255.119.183-3.785.653-3.731.631-.271.046.152-.228,3.492-5.257,1.028-1.509a4.047,4.047,0,0,1,.392-.527" transform="translate(-47.886 -101.532)" fill="#e0e0e0"/>
            <path id="Path_29357" data-name="Path 29357" d="M62.96,268.621a4.024,4.024,0,0,1,.441.486l1.168,1.4,3.982,4.9-.21.057c.17-1.166.355-2.431.547-3.744.2-1.333.391-2.617.567-3.8l.041-.274.17.217,3.86,4.944,1.1,1.442a4.016,4.016,0,0,1,.373.535,3.993,3.993,0,0,1-.435-.485l-1.153-1.4-3.931-4.888.211-.056-.556,3.8-.559,3.743-.041.272-.17-.215L64.454,270.6l-1.114-1.446a4.009,4.009,0,0,1-.379-.536" transform="translate(-32.797 -139.424)" fill="#e0e0e0"/>
            <path id="Path_29358" data-name="Path 29358" d="M140.275,221.256a4.072,4.072,0,0,1-.651.084l-1.819.157-6.294.469.073-.206,2.76,2.589,2.793,2.636.2.19-.275.015-6.263.343-1.811.078a4.024,4.024,0,0,1-.652,0,4.025,4.025,0,0,1,.647-.08l1.807-.146,6.258-.433-.074.205-2.8-2.628-2.752-2.6-.2-.189.274-.016,6.3-.38,1.823-.089a4.016,4.016,0,0,1,.656,0" transform="translate(-66.854 -115.253)" fill="#e0e0e0"/>
            <path id="Path_29359" data-name="Path 29359" d="M131.094,270.47a4,4,0,0,1,.45.478l1.2,1.379,4.077,4.818-.209.061.474-3.754.493-3.81.035-.275.174.214,3.957,4.867,1.127,1.42a4,4,0,0,1,.383.527,3.985,3.985,0,0,1-.445-.476l-1.179-1.376-4.026-4.81.209-.06c-.15,1.186-.312,2.473-.481,3.811-.171,1.316-.334,2.584-.485,3.753l-.035.273-.174-.212-4.008-4.875L131.483,271a4.082,4.082,0,0,1-.389-.529" transform="translate(-68.29 -140.32)" fill="#e0e0e0"/>
            <path id="Path_29360" data-name="Path 29360" d="M78.513,234.694a4.068,4.068,0,0,1-.651.084l-1.819.157-6.294.469.073-.205,2.76,2.588,2.793,2.636.2.19-.275.015-6.263.343-1.811.078a4.026,4.026,0,0,1-.652,0,4,4,0,0,1,.647-.08l1.807-.147,6.258-.433-.074.205-2.8-2.628-2.752-2.6-.2-.189.274-.016,6.3-.38,1.823-.089a4.089,4.089,0,0,1,.656,0" transform="translate(-34.681 -122.253)" fill="#e0e0e0"/>
            <path id="Path_29361" data-name="Path 29361" d="M112.537,270.523a4.064,4.064,0,0,1-.651.084l-1.819.157-6.294.469.073-.205,2.76,2.588,2.793,2.636.2.19-.275.015-6.263.344-1.811.078a4.025,4.025,0,0,1-.652,0,4.026,4.026,0,0,1,.647-.08l1.807-.146,6.258-.433-.074.205-2.8-2.628-2.752-2.6-.2-.189.274-.016,6.3-.38,1.823-.089a4.02,4.02,0,0,1,.656,0" transform="translate(-52.405 -140.917)" fill="#e0e0e0"/>
            <path id="Path_29362" data-name="Path 29362" d="M189.347,179.365a4.065,4.065,0,0,1-.651.084l-1.819.157-6.294.469.073-.206,2.76,2.589,2.793,2.636.2.19-.275.015-6.263.344-1.811.078a4.025,4.025,0,0,1-.652,0,4.026,4.026,0,0,1,.647-.08l1.807-.146,6.258-.433-.074.205-2.8-2.628-2.752-2.6-.2-.189.274-.016,6.3-.38,1.823-.089a4.026,4.026,0,0,1,.657,0" transform="translate(-92.417 -93.431)" fill="#e0e0e0"/>
            <path id="Path_29363" data-name="Path 29363" d="M163.781,267.246s8.061-2.322,10.728-3c1.04-.265,5.492,2.083,8.567,4.036,0,0,4.235,2.511,3.892,3.285-.377.851-1.939.677-4.429-.494,0,0,.869,2.523-.837,2.469,0,0,.846,2.727-.752,3.009s-1.975-3.2-3.386-3.385-4.325-.376-4.325-.376-2.428,4.02-4.308,4.3a35.3,35.3,0,0,1-6.239-.226Z" transform="translate(-84.751 -137.64)" fill="#ffbe9d"/>
            <path id="Path_29364" data-name="Path 29364" d="M193.68,271.689a26.847,26.847,0,0,1,4.37,2.756,26.793,26.793,0,0,1-4.37-2.756" transform="translate(-100.892 -141.527)" fill="#eb996e"/>
            <path id="Path_29365" data-name="Path 29365" d="M192.685,274.923a33.445,33.445,0,0,1,5.241,2.419,33.393,33.393,0,0,1-5.241-2.419" transform="translate(-100.374 -143.211)" fill="#eb996e"/>
            <path id="Path_29366" data-name="Path 29366" d="M194.487,282.742a13.354,13.354,0,0,1,3.605.494,13.351,13.351,0,0,1-3.605-.494" transform="translate(-101.313 -147.272)" fill="#eb996e"/>
            <path id="Path_29367" data-name="Path 29367" d="M135.856,71.7a1.657,1.657,0,0,1-2.334,1.959c-1.092-.554-1.231-2.061-1.016-3.266s.625-2.492.119-3.607a8.177,8.177,0,0,0-1.878-2.065,5.287,5.287,0,0,1-1.467-4.483,4.443,4.443,0,0,1,3.055-3.494c1.6-.448,3.582.045,4.776-1.117.866-.842.919-2.221,1.589-3.226,1.04-1.56,3.239-1.808,5.1-1.554s3.749.85,5.568.4c1.52-.378,2.766-1.439,4.19-2.091A8.207,8.207,0,0,1,164.24,60.415a5.244,5.244,0,0,1-2.545,2.519" transform="translate(-67.31 -25.236)" fill="#2a445d"/>
            <path id="Path_29368" data-name="Path 29368" d="M151.724,121.794h0a9.236,9.236,0,0,0,9.225-9.363l-.122-8.808s7.4-.741,7.889-8.071.136-24.243.136-24.243a25.53,25.53,0,0,0-25.791,1.824l-1.133.778.551,38.779a9.236,9.236,0,0,0,9.244,9.1" transform="translate(-73.934 -35.762)" fill="#ffbe9d"/>
            <path id="Path_29369" data-name="Path 29369" d="M193.014,99.532a1.1,1.1,0,0,1,.012-2.182.5.5,0,0,1,.178,0,1.1,1.1,0,0,1-.012,2.182.5.5,0,0,1-.178,0" transform="translate(-100.039 -50.708)" fill="#263238"/>
            <path id="Path_29370" data-name="Path 29370" d="M193.04,95.78c-.122.121-.812-.473-1.822-.533s-1.772.422-1.876.286c-.052-.061.075-.284.409-.509a2.494,2.494,0,0,1,2.952.2c.3.268.4.506.338.559" transform="translate(-98.627 -49.296)" fill="#263238"/>
            <path id="Path_29371" data-name="Path 29371" d="M170.856,97.337a1.067,1.067,0,1,1-1.484.27,1.067,1.067,0,0,1,1.484-.27" transform="translate(-88.131 -50.606)" fill="#263238"/>
            <path id="Path_29372" data-name="Path 29372" d="M170.034,96.389c-.122.121-.812-.473-1.822-.532-1.009-.075-1.772.422-1.876.286-.052-.061.075-.284.409-.509a2.494,2.494,0,0,1,2.952.2c.3.268.4.506.338.559" transform="translate(-86.643 -49.614)" fill="#263238"/>
            <path id="Path_29373" data-name="Path 29373" d="M181.426,105.909a4.9,4.9,0,0,1,1.652-.257c.266-.014.477-.063.5-.2a1.436,1.436,0,0,0-.148-.767c-.223-.682-.45-1.373-.687-2.1a28.181,28.181,0,0,1-1.435-5.491,28.19,28.19,0,0,1,1.984,5.317c.222.728.434,1.423.644,2.11a1.689,1.689,0,0,1,.084,1.106.694.694,0,0,1-.478.4,1.7,1.7,0,0,1-.454.034,4.9,4.9,0,0,1-1.666-.149" transform="translate(-94.438 -50.578)" fill="#263238"/>
            <path id="Path_29374" data-name="Path 29374" d="M174.5,117.451a18.939,18.939,0,0,0,4.876,1.709,2.8,2.8,0,0,1-3.355.932c-2.152-.923-1.521-2.641-1.521-2.641" transform="translate(-90.858 -61.183)" fill="#fff"/>
            <path id="Path_29375" data-name="Path 29375" d="M171.177,137.909a17.084,17.084,0,0,1-9.415-3.239s1.973,5.4,9.328,5.14Z" transform="translate(-84.266 -70.153)" fill="#eb996e"/>
            <path id="Path_29376" data-name="Path 29376" d="M166.88,71.063s-4.427,2.25-10.3-.539c-3.853-1.831-8.321-2.675-9.286-1.889s-1.1,4.723-4.855,5.944c0,0,.406,7.5-2.591,7.289S138.495,70,138.495,70l7.249-3.717,7.957-1.664,7.546.915,5.853,1.481Z" transform="translate(-71.911 -33.663)" fill="#2a445d"/>
            <path id="Path_29377" data-name="Path 29377" d="M137.433,95.237c-.123-.061-4.959-1.765-5.072,3.258s4.954,4.1,4.966,3.957.106-7.215.106-7.215" transform="translate(-68.949 -49.441)" fill="#ffbe9d"/>
            <path id="Path_29378" data-name="Path 29378" d="M137.221,102.263c-.022-.017-.089.059-.238.124a.875.875,0,0,1-.654,0,2.166,2.166,0,0,1-.958-1.965,2.888,2.888,0,0,1,.273-1.248,1.012,1.012,0,0,1,.673-.657.446.446,0,0,1,.511.252c.064.142.03.242.057.251s.11-.081.074-.29a.559.559,0,0,0-.191-.319.662.662,0,0,0-.481-.139,1.231,1.231,0,0,0-.932.758,2.981,2.981,0,0,0-.335,1.393,2.273,2.273,0,0,0,1.228,2.2.938.938,0,0,0,.8-.115c.159-.121.187-.232.17-.242" transform="translate(-70.335 -51.19)" fill="#eb996e"/>
            <path id="Path_29379" data-name="Path 29379" d="M137.611,62.622a2.771,2.771,0,0,1,3.1,1.157,4.729,4.729,0,0,0-3.1-1.157" transform="translate(-71.685 -32.554)" fill="#263238"/>
            <path id="Path_29380" data-name="Path 29380" d="M143.718,56.484c.088.006-.05,1.059.126,2.316a9.947,9.947,0,0,0,.7,2.189c-.023.017-.207-.179-.421-.555a4.725,4.725,0,0,1-.527-1.6,5.222,5.222,0,0,1,.121-2.353" transform="translate(-74.77 -29.424)" fill="#263238"/>
            <path id="Path_29381" data-name="Path 29381" d="M187,91.229c-.026-.059.189-.232.6-.4a4.582,4.582,0,0,1,3.362.034c.4.174.616.352.588.41-.061.133-1.029-.245-2.271-.247-1.241-.022-2.216.336-2.275.2" transform="translate(-97.414 -47.158)" fill="#263238"/>
            <path id="Path_29382" data-name="Path 29382" d="M163.622,89.024c-.026-.059.189-.232.6-.4a4.588,4.588,0,0,1,3.362.034c.4.174.616.352.588.41-.061.133-1.029-.245-2.271-.247-1.241-.022-2.216.336-2.275.2" transform="translate(-85.233 -46.009)" fill="#263238"/>
            <path id="Path_29383" data-name="Path 29383" d="M185.122,93.513a2.17,2.17,0,0,1,.019.3c.006.213.014.481.024.811.008.356.016.776.026,1.258a4.773,4.773,0,0,0,.239,1.629,4.365,4.365,0,0,0,1.059,1.674,4.267,4.267,0,0,0,1.98,1.087,4.064,4.064,0,0,0,1.225.107,3.945,3.945,0,0,0,1.254-.264,4.223,4.223,0,0,0,2.066-1.671,4.3,4.3,0,0,0,.674-2.452c0-.857,0-1.685.007-2.475l.116.116-6.217-.057-1.805-.031-.488-.014a1,1,0,0,1-.178-.014,5.1,5.1,0,0,1,.616-.028l1.779-.032,6.294-.057h.115v.117c0,.79,0,1.618.006,2.475a4.528,4.528,0,0,1-.709,2.587,4.45,4.45,0,0,1-2.19,1.765,4.162,4.162,0,0,1-1.327.273,4.252,4.252,0,0,1-1.292-.122,4.45,4.45,0,0,1-2.072-1.164,4.5,4.5,0,0,1-1.081-1.765,4.809,4.809,0,0,1-.21-1.7c.01-.494.019-.925.026-1.29.01-.325.018-.59.024-.8a1.365,1.365,0,0,1,.019-.264" transform="translate(-96.397 -48.652)" fill="#263238"/>
            <path id="Path_29384" data-name="Path 29384" d="M160.606,93a2.168,2.168,0,0,1,.019.3c.006.213.014.481.024.811.008.356.016.776.026,1.258a4.772,4.772,0,0,0,.239,1.629,4.365,4.365,0,0,0,1.059,1.674,4.267,4.267,0,0,0,1.981,1.088,4.064,4.064,0,0,0,1.225.107,3.945,3.945,0,0,0,1.254-.264,4.224,4.224,0,0,0,2.066-1.672,4.3,4.3,0,0,0,.674-2.452c0-.857,0-1.685.007-2.475l.116.116-6.217-.057-1.805-.032-.488-.014a1.006,1.006,0,0,1-.178-.014,5.144,5.144,0,0,1,.616-.028L163,92.936l6.294-.057h.115V93c0,.79,0,1.618.006,2.475a4.528,4.528,0,0,1-.709,2.587,4.45,4.45,0,0,1-2.19,1.765,4.162,4.162,0,0,1-1.327.273,4.252,4.252,0,0,1-1.292-.122,4.454,4.454,0,0,1-2.072-1.164,4.5,4.5,0,0,1-1.081-1.765,4.809,4.809,0,0,1-.21-1.7c.01-.494.019-.925.026-1.29.01-.325.018-.59.024-.8a1.367,1.367,0,0,1,.019-.264" transform="translate(-83.626 -48.383)" fill="#263238"/>
            <path id="Path_29385" data-name="Path 29385" d="M181.825,94.234a11.044,11.044,0,0,1-3.308,0,11.044,11.044,0,0,1,3.308,0" transform="translate(-92.994 -49.024)" fill="#263238"/>
            <path id="Path_29386" data-name="Path 29386" d="M141.563,94.355a42.162,42.162,0,0,1,4.58-.138,42.157,42.157,0,0,1,4.581.111,42.151,42.151,0,0,1-4.58.138,42.159,42.159,0,0,1-4.58-.111" transform="translate(-73.744 -49.079)" fill="#263238"/>
          </g>
        </g>
        <g id="Group_35549" data-name="Group 35549">
          <g id="Group_35548" data-name="Group 35548" clip-path="url(#clip-path)">
            <path id="Path_29387" data-name="Path 29387" d="M299.156,101.36l-14.262-5.122-14.123,5.053c-1.8.851-3.384,1.362-3.384,3.041v8.362a31.606,31.606,0,0,0,4.652,16.644,28.961,28.961,0,0,0,12.993,11.476c5.773-1.875,10.082-6.874,12.717-11.15a31.605,31.605,0,0,0,4.652-16.644V105.5a3.945,3.945,0,0,0-3.246-4.141" transform="translate(-139.288 -50.133)" fill="#f0592b"/>
            <g id="Group_35541" data-name="Group 35541" transform="translate(128.099 46.105)" opacity="0.3">
              <g id="Group_35540" data-name="Group 35540">
                <g id="Group_35539" data-name="Group 35539" clip-path="url(#clip-path-6)">
                  <path id="Path_29388" data-name="Path 29388" d="M285.033,135.961a23.028,23.028,0,0,1-10.28-9.154,25,25,0,0,1-3.681-13.167v-5.866a3.7,3.7,0,0,1,2.393-3.317l11.432-4.274,0-3.944-14.123,5.052c-1.482.648-3.384,1.362-3.384,3.041V112.7a31.6,31.6,0,0,0,4.652,16.643,28.951,28.951,0,0,0,12.993,11.476Z" transform="translate(-267.387 -96.239)"/>
                </g>
              </g>
            </g>
            <g id="Group_35544" data-name="Group 35544" transform="translate(145.606 46.105)" opacity="0.4">
              <g id="Group_35543" data-name="Group 35543">
                <g id="Group_35542" data-name="Group 35542" clip-path="url(#clip-path-7)">
                  <path id="Path_29389" data-name="Path 29389" d="M304.069,140.814a17.212,17.212,0,0,0,2.8-1.2,25.134,25.134,0,0,0,5.929-4.664,31.954,31.954,0,0,0,4.124-5.541,30.425,30.425,0,0,0,4.514-16.8l.009-6.9c-.009-3.438-1.772-3.691-3.254-4.339l-14.262-5.121,0,3.944,11.565,4.343a3.7,3.7,0,0,1,2.393,3.317v5.866a25.007,25.007,0,0,1-3.681,13.167,22.513,22.513,0,0,1-10.142,9.085Z" transform="translate(-303.931 -96.239)"/>
                </g>
              </g>
            </g>
            <g id="Group_35547" data-name="Group 35547" transform="translate(140.217 58.299)" opacity="0.5">
              <g id="Group_35546" data-name="Group 35546">
                <g id="Group_35545" data-name="Group 35545" clip-path="url(#clip-path-8)">
                  <path id="Path_29390" data-name="Path 29390" d="M301.854,126.521l.016-1.129a3.7,3.7,0,0,0-7.406-.006l-.016,1.15a2.07,2.07,0,0,0-1.767,2.047v6.657a2.072,2.072,0,0,0,2.072,2.072h6.911a2.072,2.072,0,0,0,2.072-2.072v-6.657a2.072,2.072,0,0,0-1.883-2.062m-2.7,7.063h-1.808l.282-1.305a1.1,1.1,0,1,1,1.194-.021c.128.506.331,1.326.331,1.326m1.9-7.072h-5.81l.015-1.119a2.905,2.905,0,0,1,5.81-.006Z" transform="translate(-292.682 -121.69)" fill="#fff"/>
                </g>
              </g>
            </g>
            <path id="Path_29391" data-name="Path 29391" d="M279.534,123.418a4.516,4.516,0,0,1-.214-1.158,19.816,19.816,0,0,1-.116-2.839c.016-.555.052-1.084.1-1.562a3.339,3.339,0,0,1,.319-1.262,1.446,1.446,0,0,1,.625-.628c.193-.09.314-.086.316-.072a1.612,1.612,0,0,0-.783.779,3.478,3.478,0,0,0-.248,1.2c-.037.475-.067,1-.082,1.549-.033,1.1,0,2.1.043,2.817a7.038,7.038,0,0,1,.038,1.173" transform="translate(-145.44 -60.369)" fill="#fff"/>
            <path id="Path_29392" data-name="Path 29392" d="M280.187,137.53c-.069,0-.132-.342-.14-.767s.041-.771.11-.772.131.342.14.767-.041.771-.11.772" transform="translate(-145.883 -70.84)" fill="#fff"/>
          </g>
        </g>
        <path id="Path_29393" data-name="Path 29393" d="M200.461,211.188l-15.9,39.326H155.884v1.775h85.407l17.47-41.1Z" transform="translate(-81.204 -110.013)" fill="#265192"/>
        <g id="Group_35551" data-name="Group 35551">
          <g id="Group_35550" data-name="Group 35550" clip-path="url(#clip-path)">
            <path id="Path_29394" data-name="Path 29394" d="M293.578,254.805c-.576,1.979-2.255,3.231-3.748,2.8s-2.237-2.392-1.66-4.371,2.254-3.231,3.747-2.8,2.237,2.392,1.661,4.371" transform="translate(-150.013 -130.412)" fill="#fafafa"/>
          </g>
        </g>
      </g>
    </g>
  </g>
</svg>
