<svg xmlns="http://www.w3.org/2000/svg" width="360.34" height="96.876" viewBox="0 0 360.34 96.876">
  <g id="Group_34416" data-name="Group 34416" transform="translate(-780 -229.124)">
    <path id="Path_21818" data-name="Path 21818" d="M605.831,726.521H246.509c-.281,0-.509-.131-.509-.294s.228-.293.509-.293H605.831c.281,0,.509.131.509.293S606.112,726.521,605.831,726.521Z" transform="translate(534 -400.521)" fill="#9499a5"/>
    <g id="Group_31763" data-name="Group 31763" transform="translate(-313.427 -59.867)">
      <g id="Group_31761" data-name="Group 31761" transform="translate(1188.607 236.322)">
        <g id="Group_31764" data-name="Group 31764" transform="translate(68.959 96.055)">
          <path id="Path_21821" data-name="Path 21821" d="M585.2,197.664c-2.59,5.365-7.356,9.359-12.348,12.61a78.074,78.074,0,0,1-16.953,8.284c-.821.287-1.65.562-2.479.821h-35.5c-.23-.263-.452-.538-.665-.821a14.45,14.45,0,0,1-2.976-10.336A12.048,12.048,0,0,1,523.227,198c4.725-1.018,10.11,1.8,11.543,6.416.792-8.9,1.7-18.164,6.432-25.742a27.268,27.268,0,0,1,19.741-12.647,24.859,24.859,0,0,1,13.743,2.516c.39.2.776.4,1.153.616a22.993,22.993,0,0,1,6.625,5.652A22.208,22.208,0,0,1,585.2,197.664Z" transform="translate(-412.321 -165.889)" fill="#cfdeeb"/>
          <path id="Path_21822" data-name="Path 21822" d="M607.9,172.863a.625.625,0,0,1-.254.562,130.111,130.111,0,0,0-37.088,48.84c-.123.271-.242.546-.357.821h-1.634c.115-.275.23-.55.349-.821q2.334-5.443,5.16-10.665A132.116,132.116,0,0,1,588.4,190.395a130.155,130.155,0,0,1,18.173-18.041.787.787,0,0,1,.172-.107.836.836,0,0,1,1.153.616Z" transform="translate(-444.383 -169.597)" fill="#eaeff2"/>
        </g>
        <g id="Group_31766" data-name="Group 31766" transform="translate(-75.18 96.055)">
          <path id="Path_21821-2" data-name="Path 21821" d="M516.183,197.664c2.59,5.365,7.356,9.359,12.348,12.61a78.073,78.073,0,0,0,16.953,8.284c.821.287,1.65.562,2.479.821h35.5c.23-.263.452-.538.665-.821a14.45,14.45,0,0,0,2.976-10.336A12.048,12.048,0,0,0,578.151,198c-4.725-1.018-10.11,1.8-11.543,6.416-.792-8.9-1.7-18.164-6.432-25.742a27.267,27.267,0,0,0-19.74-12.647,24.859,24.859,0,0,0-13.743,2.516c-.39.2-.776.4-1.153.616a22.993,22.993,0,0,0-6.625,5.652A22.208,22.208,0,0,0,516.183,197.664Z" transform="translate(-514.182 -165.889)" fill="#cfdeeb"/>
          <path id="Path_21822-2" data-name="Path 21822" d="M568.571,172.863a.625.625,0,0,0,.254.562,130.111,130.111,0,0,1,37.088,48.84c.123.271.242.546.357.821H607.9c-.115-.275-.23-.55-.349-.821q-2.334-5.443-5.16-10.665a132.116,132.116,0,0,0-14.326-21.206A130.155,130.155,0,0,0,569.9,172.354a.787.787,0,0,0-.172-.107.836.836,0,0,0-1.153.616Z" transform="translate(-557.214 -169.597)" fill="#eaeff2"/>
        </g>
        <path id="Path_21823" data-name="Path 21823" d="M430.235,294.2h-156.4A7.754,7.754,0,0,0,270,295.209a7.605,7.605,0,0,0-.809.53,7.785,7.785,0,0,0-3.148,6.256v81.277a7.806,7.806,0,0,0,7.8,7.8h156.4a7.806,7.806,0,0,0,7.8-7.8V301.994A7.806,7.806,0,0,0,430.235,294.2Zm6.978,89.077a6.988,6.988,0,0,1-6.978,6.978h-156.4a6.988,6.988,0,0,1-6.978-6.978V301.994a7.017,7.017,0,0,1,4.835-6.642c.058-.016.111-.037.168-.053a6.974,6.974,0,0,1,1.974-.283h156.4a6.988,6.988,0,0,1,6.978,6.978Z" transform="translate(-266.039 -241.527)" fill="#3f3d56"/>
        <path id="Path_21836" data-name="Path 21836" d="M354.921,345.763a3.689,3.689,0,0,1-1.781-.459l-81.706-44.97a.41.41,0,0,1,.4-.719l81.706,44.97a2.866,2.866,0,0,0,2.726.024l83.05-43.811a.41.41,0,1,1,.383.726l-83.05,43.812A3.692,3.692,0,0,1,354.921,345.763Z" transform="translate(-269.094 -244.691)" fill="#3f3d56"/>
        <path id="Path_21837" data-name="Path 21837" d="M308.383,470.763H296.889a3.284,3.284,0,0,1,0-6.568h11.494a3.284,3.284,0,0,1,0,6.568Z" transform="translate(-282.289 -341.743)" fill="#f36a20"/>
        <path id="Path_21838" data-name="Path 21838" d="M321.929,497.763h-25.04a3.284,3.284,0,1,1,0-6.568h25.04a3.284,3.284,0,1,1,0,6.568Z" transform="translate(-282.289 -357.66)" fill="#f36a20"/>
      </g>
      <g id="Group_31762" data-name="Group 31762" transform="translate(1255.14 318.168)">
        <circle id="Ellipse_1399" data-name="Ellipse 1399" cx="19.261" cy="19.261" r="19.261" fill="#3dc88b"/>
        <path id="fi-rr-check" d="M16.261,5.322,6.345,14.347a.746.746,0,0,1-1.057,0L1.3,10.358a.746.746,0,0,0-1.057,0h0a.746.746,0,0,0,0,1.057L4.234,15.4a2.243,2.243,0,0,0,3.169,0l9.915-9.022a.746.746,0,0,0,0-1.056h0a.746.746,0,0,0-1.057,0Z" transform="translate(10.712 9.108)" fill="#fff" stroke="#fff" stroke-width="1"/>
      </g>
    </g>
  </g>
</svg>
