<svg xmlns="http://www.w3.org/2000/svg" xmlns:xlink="http://www.w3.org/1999/xlink" width="512" zoomAndPan="magnify" viewBox="0 0 384 149.999998" height="200" preserveAspectRatio="xMidYMid meet" version="1.0"><defs><g/><clipPath id="ccd495b3da"><path d="M 74 1.050781 L 189.445312 1.050781 L 189.445312 148 L 74 148 Z M 74 1.050781 " clip-rule="nonzero"/></clipPath><clipPath id="0ba0c67ae6"><path d="M 34.195312 32 L 94 32 L 94 84 L 34.195312 84 Z M 34.195312 32 " clip-rule="nonzero"/></clipPath></defs><rect x="-38.4" width="460.8" fill="#ffffff" y="-15" height="179.999997" fill-opacity="1"/><rect x="-38.4" width="460.8" fill="#ffffff" y="-15" height="179.999997" fill-opacity="1"/><rect x="-38.4" width="460.8" fill="#ffffff" y="-15" height="179.999997" fill-opacity="1"/><g clip-path="url(#ccd495b3da)"><path fill="#2e4d6c" d="M 189.445312 21.417969 C 189.445312 32.664062 180.308594 41.78125 169.035156 41.78125 C 164.773438 41.78125 160.8125 40.472656 157.539062 38.242188 C 142.625 47.421875 138.878906 59.117188 137.941406 64.574219 C 141.140625 69.789062 142.984375 75.925781 142.984375 82.492188 C 142.984375 91.964844 139.144531 100.546875 132.9375 106.765625 C 133.136719 110.703125 134.773438 117.574219 142.617188 124.109375 C 143.90625 123.941406 145.246094 123.984375 146.589844 124.269531 C 153.007812 125.625 157.105469 131.914062 155.746094 138.316406 C 154.390625 144.71875 148.085938 148.808594 141.671875 147.457031 C 135.257812 146.101562 131.15625 139.8125 132.515625 133.410156 C 133.027344 130.988281 134.253906 128.898438 135.917969 127.304688 C 132.710938 118.371094 127.082031 114.691406 123.90625 113.273438 C 119.273438 115.589844 114.042969 116.894531 108.507812 116.894531 C 91.09375 116.894531 76.699219 104.011719 74.367188 87.273438 C 75.457031 87.203125 76.523438 86.957031 77.539062 86.523438 L 94.113281 79.445312 C 96.492188 78.429688 98.332031 76.550781 99.296875 74.148438 C 100.257812 71.75 100.226562 69.125 99.210938 66.75 L 92.824219 51.863281 C 97.53125 49.460938 102.855469 48.09375 108.507812 48.09375 C 113.40625 48.09375 118.066406 49.121094 122.285156 50.960938 C 128.492188 49.695312 140.785156 45.066406 149.769531 28.144531 C 149.03125 26.039062 148.625 23.78125 148.625 21.425781 C 148.632812 10.171875 157.769531 1.054688 169.035156 1.054688 C 180.308594 1.054688 189.445312 10.171875 189.445312 21.417969 Z M 189.445312 21.417969 " fill-opacity="1" fill-rule="nonzero"/></g><g clip-path="url(#0ba0c67ae6)"><path fill="#ff7e67" d="M 93.425781 69.214844 C 94.164062 70.933594 93.363281 72.929688 91.640625 73.664062 L 75.066406 80.746094 C 73.34375 81.480469 71.347656 80.683594 70.609375 78.964844 L 63.515625 62.425781 C 62.777344 60.707031 63.578125 58.710938 65.300781 57.976562 L 81.871094 50.894531 C 83.59375 50.160156 85.59375 50.957031 86.328125 52.675781 Z M 73.027344 33.914062 C 72.675781 33.097656 71.730469 32.722656 70.914062 33.070312 L 63.054688 36.425781 C 62.238281 36.777344 61.859375 37.71875 62.210938 38.535156 L 65.574219 46.375 C 65.925781 47.191406 66.871094 47.570312 67.6875 47.21875 L 75.546875 43.863281 C 76.363281 43.511719 76.742188 42.570312 76.390625 41.753906 Z M 58.945312 71.785156 C 58.632812 71.054688 57.785156 70.714844 57.050781 71.027344 L 50.011719 74.03125 C 49.28125 74.34375 48.941406 75.191406 49.253906 75.921875 L 52.265625 82.945312 C 52.578125 83.675781 53.425781 84.015625 54.160156 83.703125 L 61.199219 80.699219 C 61.929688 80.386719 62.269531 79.539062 61.957031 78.808594 Z M 51.824219 44.992188 C 51.273438 43.703125 49.777344 43.109375 48.484375 43.660156 L 36.078125 48.960938 C 34.785156 49.511719 34.1875 51.003906 34.742188 52.289062 L 40.054688 64.675781 C 40.605469 65.964844 42.101562 66.558594 43.390625 66.011719 L 55.804688 60.707031 C 57.09375 60.15625 57.695312 58.664062 57.140625 57.378906 Z M 51.824219 44.992188 " fill-opacity="1" fill-rule="nonzero"/></g><g fill="#000000" fill-opacity="1"><g transform="translate(169.875814, 78.222276)"><g><path d="M 13.011719 -6.417969 C 13.011719 -10.550781 10.613281 -12.597656 7.296875 -12.597656 C 3.820312 -12.597656 1.21875 -10.210938 1.21875 -6.179688 C 1.21875 -2.136719 3.769531 0.25 7.359375 0.25 C 9.808594 0.25 11.855469 -1.128906 12.75 -3.378906 L 10.789062 -3.792969 C 10.136719 -2.410156 8.855469 -1.570312 7.335938 -1.570312 C 5.210938 -1.570312 3.402344 -2.964844 3.339844 -5.828125 L 12.988281 -5.828125 Z M 7.296875 -10.914062 C 9.230469 -10.914062 10.652344 -9.796875 10.828125 -7.5 L 3.429688 -7.5 C 3.792969 -9.796875 5.324219 -10.914062 7.296875 -10.914062 Z M 7.296875 -10.914062 "/></g></g></g><g fill="#000000" fill-opacity="1"><g transform="translate(191.489921, 78.222276)"><g><path d="M 12.6875 -16.628906 C 11.65625 -17.347656 10.199219 -17.683594 8.214844 -17.683594 L 2.777344 -17.683594 L 2.777344 0 L 5.023438 0 L 5.023438 -6.871094 L 8.214844 -6.871094 C 10.261719 -6.871094 11.757812 -7.296875 12.785156 -8.191406 C 13.992188 -9.117188 14.582031 -10.640625 14.582031 -12.546875 C 14.582031 -14.457031 13.953125 -15.8125 12.6875 -16.628906 Z M 11.378906 -9.796875 C 10.664062 -9.070312 9.507812 -8.828125 7.925781 -8.828125 L 5.023438 -8.828125 L 5.023438 -15.738281 L 7.925781 -15.738281 C 9.46875 -15.738281 10.589844 -15.574219 11.34375 -14.960938 C 11.933594 -14.46875 12.285156 -13.664062 12.285156 -12.460938 C 12.285156 -11.203125 11.957031 -10.363281 11.378906 -9.796875 Z M 11.378906 -9.796875 "/></g></g></g><g fill="#000000" fill-opacity="1"><g transform="translate(214.686533, 78.222276)"><g><path d="M 14.972656 0 L 10.5625 -7.109375 C 11.46875 -7.324219 12.195312 -7.6875 12.785156 -8.191406 C 13.992188 -9.117188 14.582031 -10.640625 14.582031 -12.546875 C 14.582031 -14.457031 13.953125 -15.8125 12.6875 -16.628906 C 11.65625 -17.347656 10.199219 -17.683594 8.214844 -17.683594 L 2.777344 -17.683594 L 2.777344 0 L 5.023438 0 L 5.023438 -6.871094 L 8.367188 -6.871094 L 12.347656 0 Z M 5.023438 -15.738281 L 7.925781 -15.738281 C 9.46875 -15.738281 10.589844 -15.574219 11.34375 -14.960938 C 11.933594 -14.46875 12.285156 -13.664062 12.285156 -12.460938 C 12.285156 -11.203125 11.957031 -10.363281 11.378906 -9.796875 C 10.664062 -9.070312 9.507812 -8.828125 7.925781 -8.828125 L 5.023438 -8.828125 Z M 5.023438 -15.738281 "/></g></g></g><g fill="#000000" fill-opacity="1"><g transform="translate(238.460884, 78.222276)"><g><path d="M 10.351562 0.238281 C 15.285156 0.238281 19.128906 -3.191406 19.128906 -8.855469 C 19.128906 -14.496094 15.285156 -17.925781 10.351562 -17.925781 C 5.363281 -17.925781 1.546875 -14.496094 1.546875 -8.855469 C 1.546875 -3.191406 5.363281 0.238281 10.351562 0.238281 Z M 10.351562 -1.882812 C 6.683594 -1.882812 3.78125 -4.394531 3.78125 -8.855469 C 3.78125 -13.265625 6.683594 -15.777344 10.351562 -15.777344 C 13.992188 -15.777344 16.882812 -13.265625 16.882812 -8.855469 C 16.882812 -4.394531 13.992188 -1.882812 10.351562 -1.882812 Z M 10.351562 -1.882812 "/></g></g></g><g fill="#000000" fill-opacity="1"><g transform="translate(169.875814, 113.112997)"><g><path d="M 10.351562 0.238281 C 13.839844 0.238281 16.78125 -1.480469 18.164062 -4.460938 L 16.089844 -5.300781 C 15.011719 -3.113281 12.875 -1.910156 10.351562 -1.910156 C 6.683594 -1.910156 3.78125 -4.421875 3.78125 -8.855469 C 3.78125 -13.265625 6.683594 -15.777344 10.351562 -15.777344 C 12.875 -15.777344 15.011719 -14.558594 16.089844 -12.371094 L 18.164062 -13.226562 C 16.78125 -16.191406 13.839844 -17.925781 10.351562 -17.925781 C 5.363281 -17.925781 1.546875 -14.496094 1.546875 -8.855469 C 1.546875 -3.191406 5.363281 0.238281 10.351562 0.238281 Z M 10.351562 0.238281 "/></g></g></g><g fill="#000000" fill-opacity="1"><g transform="translate(196.526309, 113.112997)"><g><path d="M 10.351562 0.238281 C 15.285156 0.238281 19.128906 -3.191406 19.128906 -8.855469 C 19.128906 -14.496094 15.285156 -17.925781 10.351562 -17.925781 C 5.363281 -17.925781 1.546875 -14.496094 1.546875 -8.855469 C 1.546875 -3.191406 5.363281 0.238281 10.351562 0.238281 Z M 10.351562 -1.882812 C 6.683594 -1.882812 3.78125 -4.394531 3.78125 -8.855469 C 3.78125 -13.265625 6.683594 -15.777344 10.351562 -15.777344 C 13.992188 -15.777344 16.882812 -13.265625 16.882812 -8.855469 C 16.882812 -4.394531 13.992188 -1.882812 10.351562 -1.882812 Z M 10.351562 -1.882812 "/></g></g></g><g fill="#000000" fill-opacity="1"><g transform="translate(224.608594, 113.112997)"><g><path d="M 14.65625 -17.683594 L 14.65625 -3.441406 L 5.125 -17.683594 L 2.777344 -17.683594 L 2.777344 0 L 4.988281 0 L 4.988281 -14.304688 L 14.519531 0 L 16.894531 0 L 16.894531 -17.683594 Z M 14.65625 -17.683594 "/></g></g></g><g fill="#000000" fill-opacity="1"><g transform="translate(251.686113, 113.112997)"><g><path d="M 14.65625 -17.683594 L 14.65625 -3.441406 L 5.125 -17.683594 L 2.777344 -17.683594 L 2.777344 0 L 4.988281 0 L 4.988281 -14.304688 L 14.519531 0 L 16.894531 0 L 16.894531 -17.683594 Z M 14.65625 -17.683594 "/></g></g></g><g fill="#000000" fill-opacity="1"><g transform="translate(278.763633, 113.112997)"><g><path d="M 12.257812 -15.636719 L 12.257812 -17.683594 L 2.777344 -17.683594 L 2.777344 0 L 12.257812 0 L 12.257812 -2.046875 L 5.074219 -2.046875 L 5.074219 -7.824219 L 11.40625 -7.824219 L 11.40625 -9.847656 L 5.074219 -9.847656 L 5.074219 -15.636719 Z M 12.257812 -15.636719 "/></g></g></g><g fill="#000000" fill-opacity="1"><g transform="translate(299.963275, 113.112997)"><g><path d="M 10.351562 0.238281 C 13.839844 0.238281 16.78125 -1.480469 18.164062 -4.460938 L 16.089844 -5.300781 C 15.011719 -3.113281 12.875 -1.910156 10.351562 -1.910156 C 6.683594 -1.910156 3.78125 -4.421875 3.78125 -8.855469 C 3.78125 -13.265625 6.683594 -15.777344 10.351562 -15.777344 C 12.875 -15.777344 15.011719 -14.558594 16.089844 -12.371094 L 18.164062 -13.226562 C 16.78125 -16.191406 13.839844 -17.925781 10.351562 -17.925781 C 5.363281 -17.925781 1.546875 -14.496094 1.546875 -8.855469 C 1.546875 -3.191406 5.363281 0.238281 10.351562 0.238281 Z M 10.351562 0.238281 "/></g></g></g><g fill="#000000" fill-opacity="1"><g transform="translate(326.61377, 113.112997)"><g><path d="M 12.019531 -17.683594 L 0.703125 -17.683594 L 0.703125 -15.636719 L 5.25 -15.636719 L 5.25 0 L 7.484375 0 L 7.484375 -15.636719 L 12.019531 -15.636719 Z M 12.019531 -17.683594 "/></g></g></g></svg>